<?xml version="1.0" encoding="UTF-8"?>
<!DOCTYPE svg PUBLIC "-//W3C//DTD SVG 1.1//EN" "http://www.w3.org/Graphics/SVG/1.1/DTD/svg11.dtd">
<svg xmlns="http://www.w3.org/2000/svg" version="1.1" width="707px" height="353px" style="shape-rendering:geometricPrecision; text-rendering:geometricPrecision; image-rendering:optimizeQuality; fill-rule:evenodd; clip-rule:evenodd" xmlns:xlink="http://www.w3.org/1999/xlink">
<g><path style="opacity:0.004" fill="#fefefe" d="M 224.5,39.5 C 224.897,38.475 225.563,38.3083 226.5,39C 225.906,39.4643 225.239,39.631 224.5,39.5 Z"/></g>
<g><path style="opacity:0.008" fill="#f6f7f6" d="M 229.5,40.5 C 230.833,41.1667 230.833,41.1667 229.5,40.5 Z"/></g>
<g><path style="opacity:0.004" fill="#f4f5f4" d="M 262.5,42.5 C 263.833,43.1667 263.833,43.1667 262.5,42.5 Z"/></g>
<g><path style="opacity:0.976" fill="#dededd" d="M 350.5,44.5 C 352.013,46.5161 352.847,48.8494 353,51.5C 353.5,64.1623 353.667,76.8289 353.5,89.5C 353.167,89.5 352.833,89.5 352.5,89.5C 352.667,78.495 352.5,67.495 352,56.5C 351.628,51.8902 349.794,48.0569 346.5,45C 321.348,44.5508 296.014,44.3842 270.5,44.5C 270.5,48.1667 270.5,51.8333 270.5,55.5C 267.421,55.2601 264.421,55.5934 261.5,56.5C 260.194,57.9122 259.36,59.5789 259,61.5C 258.5,73.8288 258.333,86.1622 258.5,98.5C 258.5,101.167 258.5,103.833 258.5,106.5C 257.338,89.6717 257.172,72.6717 258,55.5C 259.096,48.0737 263.262,43.5737 270.5,42C 294.167,41.3333 317.833,41.3333 341.5,42C 344.722,42.199 347.722,43.0324 350.5,44.5 Z"/></g>
<g><path style="opacity:0.928" fill="#191919" d="M 351.5,42.5 C 398.003,42.1679 444.336,42.5012 490.5,43.5C 444.488,42.8384 398.821,43.505 353.5,45.5C 352.609,44.8902 351.609,44.5569 350.5,44.5C 350.328,43.5084 350.662,42.8417 351.5,42.5 Z"/></g>
<g><path style="opacity:1" fill="#070707" d="M 255.5,49.5 C 250.5,49.5 245.5,49.5 240.5,49.5C 240.5,120.5 240.5,191.5 240.5,262.5C 267.328,263.498 294.328,263.831 321.5,263.5C 321.5,265.5 321.5,267.5 321.5,269.5C 290.5,269.5 259.5,269.5 228.5,269.5C 228.5,193.833 228.5,118.167 228.5,42.5C 239.158,41.6829 249.825,41.5162 260.5,42C 260.833,42.3333 261.167,42.6667 261.5,43C 259.266,45.0627 257.266,47.2294 255.5,49.5 Z"/></g>
<g><path style="opacity:1" fill="#040404" d="M 490.5,43.5 C 490.5,118.833 490.5,194.167 490.5,269.5C 481.833,269.5 473.167,269.5 464.5,269.5C 464.5,267.5 464.5,265.5 464.5,263.5C 469.363,263.819 474.03,263.486 478.5,262.5C 478.5,191.5 478.5,120.5 478.5,49.5C 437.264,48.8279 395.931,48.1613 354.5,47.5C 353.662,47.1583 353.328,46.4916 353.5,45.5C 398.821,43.505 444.488,42.8384 490.5,43.5 Z"/></g>
<g><path style="opacity:0.998" fill="#d5d0d0" d="M 352.5,89.5 C 351.373,90.1217 350.373,90.955 349.5,92C 342.117,92.7985 334.783,92.6318 327.5,91.5C 326.339,87.2047 326.172,82.8713 327,78.5C 328.356,74.6024 329.189,70.6024 329.5,66.5C 329.444,64.3603 328.777,62.6936 327.5,61.5C 325.601,59.5366 323.267,58.0366 320.5,57C 310.167,56.3333 299.833,56.3333 289.5,57C 280.688,61.9871 279.188,68.8204 285,77.5C 285.414,77.9574 285.914,78.2907 286.5,78.5C 287.429,77.3112 287.762,75.9778 287.5,74.5C 287.5,71.8333 287.5,69.1667 287.5,66.5C 299.5,66.5 311.5,66.5 323.5,66.5C 323.5,68.8333 323.5,71.1667 323.5,73.5C 323.5,83.5 323.5,93.5 323.5,103.5C 322.505,91.6783 322.172,79.6783 322.5,67.5C 311.167,67.5 299.833,67.5 288.5,67.5C 288.188,79.2176 288.521,90.8842 289.5,102.5C 306.553,118.89 323.886,134.89 341.5,150.5C 341.833,150.5 342.167,150.5 342.5,150.5C 343.167,150.833 343.833,151.167 344.5,151.5C 344.5,151.833 344.5,152.167 344.5,152.5C 343.282,154.332 343.949,155.332 346.5,155.5C 346.5,156.833 347.167,157.5 348.5,157.5C 348.427,159.027 349.094,160.027 350.5,160.5C 351.226,163.179 352.059,165.846 353,168.5C 353.49,167.207 353.657,165.873 353.5,164.5C 354.268,165.263 354.768,166.263 355,167.5C 355.499,172.823 355.666,178.156 355.5,183.5C 354.674,179.018 354.174,174.351 354,169.5C 353.832,189.004 353.332,208.338 352.5,227.5C 352.667,214.163 352.5,200.829 352,187.5C 351.5,188.5 351,189.5 350.5,190.5C 351.639,199.452 351.805,208.452 351,217.5C 347.419,224.898 342.586,231.232 336.5,236.5C 315.294,237.816 293.961,237.816 272.5,236.5C 271.214,233.883 269.547,231.55 267.5,229.5C 266.147,224.934 264.314,220.601 262,216.5C 261.5,205.839 261.333,195.172 261.5,184.5C 260.5,184.5 259.5,184.5 258.5,184.5C 258.5,197.167 258.5,209.833 258.5,222.5C 257.234,205.984 257.234,189.317 258.5,172.5C 267.885,170.945 277.218,170.778 286.5,172C 287.056,172.383 287.389,172.883 287.5,173.5C 287.5,186.833 287.5,200.167 287.5,213.5C 299.5,213.5 311.5,213.5 323.5,213.5C 323.5,209.5 323.5,205.5 323.5,201.5C 325.292,196.255 326.126,190.588 326,184.5C 329.898,178.986 330.564,172.986 328,166.5C 324.273,163.276 321.106,159.609 318.5,155.5C 310.801,148.796 303.134,142.129 295.5,135.5C 294.833,135.167 294.167,134.833 293.5,134.5C 286.539,125.705 278.706,117.705 270,110.5C 267.011,106.175 264.011,101.841 261,97.5C 260.667,86.5 260.333,75.5 260,64.5C 259.831,76.0074 259.331,87.3407 258.5,98.5C 258.333,86.1622 258.5,73.8288 259,61.5C 259.36,59.5789 260.194,57.9122 261.5,56.5C 264.421,55.5934 267.421,55.2601 270.5,55.5C 270.5,51.8333 270.5,48.1667 270.5,44.5C 296.014,44.3842 321.348,44.5508 346.5,45C 349.794,48.0569 351.628,51.8902 352,56.5C 352.5,67.495 352.667,78.495 352.5,89.5 Z"/></g>
<g><path style="opacity:0.527" fill="#9d9d9d" d="M 351.5,42.5 C 397.997,41.5012 444.664,41.1679 491.5,41.5C 491.5,117.833 491.5,194.167 491.5,270.5C 482.167,270.5 472.833,270.5 463.5,270.5C 463.5,267.833 463.5,265.167 463.5,262.5C 468.167,262.5 472.833,262.5 477.5,262.5C 477.833,262.5 478.167,262.5 478.5,262.5C 474.03,263.486 469.363,263.819 464.5,263.5C 464.5,265.5 464.5,267.5 464.5,269.5C 473.167,269.5 481.833,269.5 490.5,269.5C 490.5,194.167 490.5,118.833 490.5,43.5C 444.336,42.5012 398.003,42.1679 351.5,42.5 Z"/></g>
<g><path style="opacity:0.881" fill="#252525" d="M 354.5,47.5 C 395.931,48.1613 437.264,48.8279 478.5,49.5C 437.5,49.5 396.5,49.5 355.5,49.5C 354.662,49.1583 354.328,48.4916 354.5,47.5 Z"/></g>
<g><path style="opacity:0.148" fill="#dadada" d="M 355.5,49.5 C 396.5,49.5 437.5,49.5 478.5,49.5C 478.5,120.5 478.5,191.5 478.5,262.5C 478.167,262.5 477.833,262.5 477.5,262.5C 477.5,191.833 477.5,121.167 477.5,50.5C 436.663,50.8319 395.997,50.4986 355.5,49.5 Z"/></g>
<g><path style="opacity:0.058" fill="#ebebeb" d="M 255.5,49.5 C 251.03,50.4861 246.363,50.8195 241.5,50.5C 241.5,121.167 241.5,191.833 241.5,262.5C 241.167,262.5 240.833,262.5 240.5,262.5C 240.5,191.5 240.5,120.5 240.5,49.5C 245.5,49.5 250.5,49.5 255.5,49.5 Z"/></g>
<g><path style="opacity:0.294" fill="#debdb5" d="M 395.5,55.5 C 400.331,55.1621 401.665,57.1621 399.5,61.5C 394.155,61.5504 392.822,59.5504 395.5,55.5 Z"/></g>
<g><path style="opacity:1" fill="#b4b0af" d="M 293.5,134.5 C 292.761,134.631 292.094,134.464 291.5,134C 288.266,130.855 285.266,127.522 282.5,124C 281.5,123.667 280.5,123.333 279.5,123C 275.657,117.991 271.324,113.491 266.5,109.5C 264.591,108.652 262.591,108.318 260.5,108.5C 260.448,110.903 260.781,113.236 261.5,115.5C 259.138,113.081 258.138,110.081 258.5,106.5C 258.5,103.833 258.5,101.167 258.5,98.5C 259.331,87.3407 259.831,76.0074 260,64.5C 260.333,75.5 260.667,86.5 261,97.5C 264.011,101.841 267.011,106.175 270,110.5C 278.706,117.705 286.539,125.705 293.5,134.5 Z"/></g>
<g><path style="opacity:0.318" fill="#dec2c1" d="M 381.5,62.5 C 384.763,62.6743 386.43,64.341 386.5,67.5C 382.358,67.6874 380.691,66.0207 381.5,62.5 Z"/></g>
<g><path style="opacity:1" fill="#9d999a" d="M 327.5,61.5 C 329.067,66.9004 328.233,71.9004 325,76.5C 324.768,75.2625 324.268,74.2625 323.5,73.5C 323.5,71.1667 323.5,68.8333 323.5,66.5C 324.302,67.9516 324.802,69.6183 325,71.5C 327.193,65.2164 325.026,60.8831 318.5,58.5C 309.862,57.3903 301.196,57.2237 292.5,58C 283.903,61.4314 282.236,66.9314 287.5,74.5C 287.762,75.9778 287.429,77.3112 286.5,78.5C 285.914,78.2907 285.414,77.9574 285,77.5C 279.188,68.8204 280.688,61.9871 289.5,57C 299.833,56.3333 310.167,56.3333 320.5,57C 323.267,58.0366 325.601,59.5366 327.5,61.5 Z"/></g>
<g><path style="opacity:0.99" fill="#6e6c6d" d="M 323.5,66.5 C 311.5,66.5 299.5,66.5 287.5,66.5C 287.5,69.1667 287.5,71.8333 287.5,74.5C 282.236,66.9314 283.903,61.4314 292.5,58C 301.196,57.2237 309.862,57.3903 318.5,58.5C 325.026,60.8831 327.193,65.2164 325,71.5C 324.802,69.6183 324.302,67.9516 323.5,66.5 Z"/></g>
<g><path style="opacity:0.988" fill="#aebcb3" d="M 402.5,65.5 C 403.833,65.5 405.167,65.5 406.5,65.5C 408.075,68.9578 408.575,72.6245 408,76.5C 403.543,79.7065 400.376,78.7065 398.5,73.5C 399.219,71.2723 400.552,69.439 402.5,68C 401.402,67.2303 401.402,66.397 402.5,65.5 Z"/></g>
<g><path style="opacity:0.773" fill="#e7d8c1" d="M 390.5,79.5 C 392.167,79.5 393.833,79.5 395.5,79.5C 395.66,81.1992 395.494,82.8659 395,84.5C 391.5,86.6667 388.667,89.5 386.5,93C 384.893,92.9813 383.226,92.8146 381.5,92.5C 381.185,90.7741 381.019,89.1075 381,87.5C 384.145,84.6962 387.312,82.0296 390.5,79.5 Z"/></g>
<g><path style="opacity:1" fill="#e3b657" d="M 414.5,79.5 C 415.167,79.5 415.5,79.8333 415.5,80.5C 415.5,85.1667 415.5,89.8333 415.5,94.5C 414.833,94.5 414.167,94.5 413.5,94.5C 413.577,90.7852 413.244,87.1185 412.5,83.5C 411.5,83.5 410.5,83.5 409.5,83.5C 409.552,87.1981 409.886,90.8648 410.5,94.5C 409.5,94.5 408.5,94.5 407.5,94.5C 407.772,90.0983 407.439,85.7649 406.5,81.5C 409.36,82.0968 412.026,81.4301 414.5,79.5 Z"/></g>
<g><path style="opacity:1" fill="#a55b35" d="M 413.5,94.5 C 412.5,94.5 411.5,94.5 410.5,94.5C 409.886,90.8648 409.552,87.1981 409.5,83.5C 410.5,83.5 411.5,83.5 412.5,83.5C 413.244,87.1185 413.577,90.7852 413.5,94.5 Z"/></g>
<g><path style="opacity:0.18" fill="#e0cac1" d="M 371.5,92.5 C 372.091,91.8485 372.757,91.1818 373.5,90.5C 371.808,89.7992 370.142,90.1325 368.5,91.5C 368.062,91.5654 367.728,91.3988 367.5,91C 368.05,89.1554 369.05,87.6554 370.5,86.5C 371.807,87.8155 373.307,88.8155 375,89.5C 375.483,90.448 375.649,91.448 375.5,92.5C 374.167,92.5 372.833,92.5 371.5,92.5 Z"/></g>
<g><path style="opacity:0.992" fill="#ab674f" d="M 383.5,86.5 C 387.772,89.0345 387.439,90.3679 382.5,90.5C 382.433,89.0413 382.766,87.7079 383.5,86.5 Z"/></g>
<g><path style="opacity:0.957" fill="#a85852" d="M 371.5,92.5 C 370.053,93.8852 369.053,93.5518 368.5,91.5C 370.142,90.1325 371.808,89.7992 373.5,90.5C 372.757,91.1818 372.091,91.8485 371.5,92.5 Z"/></g>
<g><path style="opacity:0.961" fill="#a99595" d="M 400.5,90.5 C 401.832,92.1377 403.166,93.8044 404.5,95.5C 401.454,95.1826 399.787,96.5159 399.5,99.5C 397.629,96.8517 395.629,94.185 393.5,91.5C 395.648,88.2105 397.981,87.8772 400.5,90.5 Z"/></g>
<g><path style="opacity:1" fill="#432725" d="M 400.5,90.5 C 400.833,93.5 399.5,94.8333 396.5,94.5C 396.5,93.1667 396.5,91.8333 396.5,90.5C 397.833,90.5 399.167,90.5 400.5,90.5 Z"/></g>
<g><path style="opacity:0.02" fill="#dac2b1" d="M 414.5,79.5 C 412.026,81.4301 409.36,82.0968 406.5,81.5C 407.439,85.7649 407.772,90.0983 407.5,94.5C 406.778,94.0825 406.278,93.4158 406,92.5C 405.501,88.1794 405.334,83.8461 405.5,79.5C 408.719,79.0935 411.719,79.0935 414.5,79.5 Z"/></g>
<g><path style="opacity:1" fill="#bbb9b9" d="M 327.5,61.5 C 328.777,62.6936 329.444,64.3603 329.5,66.5C 329.189,70.6024 328.356,74.6024 327,78.5C 326.172,82.8713 326.339,87.2047 327.5,91.5C 334.783,92.6318 342.117,92.7985 349.5,92C 350.373,90.955 351.373,90.1217 352.5,89.5C 352.833,89.5 353.167,89.5 353.5,89.5C 353.5,94.5 353.5,99.5 353.5,104.5C 343.319,104.827 333.319,104.494 323.5,103.5C 323.5,93.5 323.5,83.5 323.5,73.5C 324.268,74.2625 324.768,75.2625 325,76.5C 328.233,71.9004 329.067,66.9004 327.5,61.5 Z"/></g>
<g><path style="opacity:0.004" fill="#f9f5f1" d="M 403.5,92.5 C 404.833,93.1667 404.833,93.1667 403.5,92.5 Z"/></g>
<g><path style="opacity:0.576" fill="#dbc5b4" d="M 415.5,80.5 C 416.137,84.3072 417.137,88.1405 418.5,92C 418.252,93.7491 417.252,94.5824 415.5,94.5C 415.5,89.8333 415.5,85.1667 415.5,80.5 Z"/></g>
<g><path style="opacity:0.008" fill="#eff4f1" d="M 375.5,93.5 C 376.833,94.1667 376.833,94.1667 375.5,93.5 Z"/></g>
<g><path style="opacity:0.059" fill="#f5e7d3" d="M 407.5,94.5 C 408.5,94.5 409.5,94.5 410.5,94.5C 411.5,94.5 412.5,94.5 413.5,94.5C 414.167,94.5 414.833,94.5 415.5,94.5C 413.444,95.2161 411.277,95.8828 409,96.5C 408.283,95.9558 407.783,95.2891 407.5,94.5 Z"/></g>
<g><path style="opacity:0.02" fill="#f1f4ee" d="M 382.5,95.5 C 383.833,96.1667 383.833,96.1667 382.5,95.5 Z"/></g>
<g><path style="opacity:1" fill="#6f6e6e" d="M 324.5,93.5 C 333.833,93.5 343.167,93.5 352.5,93.5C 352.5,96.8333 352.5,100.167 352.5,103.5C 343.167,103.5 333.833,103.5 324.5,103.5C 324.5,100.167 324.5,96.8333 324.5,93.5 Z"/></g>
<g><path style="opacity:1" fill="#674b49" d="M 404.5,95.5 C 405.434,96.5676 405.768,97.901 405.5,99.5C 403.784,99.6287 402.117,99.962 400.5,100.5C 399.833,100.5 399.5,100.167 399.5,99.5C 399.787,96.5159 401.454,95.1826 404.5,95.5 Z"/></g>
<g><path style="opacity:0.941" fill="#beaa88" d="M 382.5,96.5 C 385.259,96.9333 386.592,98.6 386.5,101.5C 384.08,101.708 381.747,101.374 379.5,100.5C 378.386,99.277 378.219,97.9437 379,96.5C 379.986,97.1712 381.153,97.1712 382.5,96.5 Z"/></g>
<g><path style="opacity:0.831" fill="#b9a8a6" d="M 405.5,99.5 C 405.938,99.4346 406.272,99.6012 406.5,100C 405.034,100.635 403.7,101.469 402.5,102.5C 401.478,102.145 400.811,101.478 400.5,100.5C 402.117,99.962 403.784,99.6287 405.5,99.5 Z"/></g>
<g><path style="opacity:0.969" fill="#b199b5" d="M 424.5,102.5 C 428.494,100.651 429.994,101.985 429,106.5C 428.184,107.823 427.017,108.489 425.5,108.5C 427.179,105.988 426.845,103.988 424.5,102.5 Z"/></g>
<g><path style="opacity:0.92" fill="#b4d9cc" d="M 403.5,108.5 C 403.672,107.508 403.338,106.842 402.5,106.5C 402.36,104.876 403.027,103.71 404.5,103C 407.937,101.165 411.437,100.665 415,101.5C 415.309,102.766 415.809,103.933 416.5,105C 416.167,105.333 415.833,105.667 415.5,106C 411.841,106.794 408.341,107.961 405,109.5C 404.617,108.944 404.117,108.611 403.5,108.5 Z"/></g>
<g><path style="opacity:0.82" fill="#ba9fbd" d="M 423.5,102.5 C 422.37,104.315 421.704,106.315 421.5,108.5C 422.833,108.5 424.167,108.5 425.5,108.5C 424.856,111.804 422.856,113.138 419.5,112.5C 418.483,109.973 418.483,107.473 419.5,105C 420.356,103.405 421.689,102.572 423.5,102.5 Z"/></g>
<g><path style="opacity:0.173" fill="#f8f2cc" d="M 368.5,105.5 C 366.833,105.5 365.167,105.5 363.5,105.5C 363.296,107.685 362.63,109.685 361.5,111.5C 360.903,111.265 360.57,110.765 360.5,110C 361.689,108.105 362.689,106.105 363.5,104C 365.535,103.401 367.201,103.901 368.5,105.5 Z"/></g>
<g><path style="opacity:1" fill="#ad6db6" d="M 423.5,102.5 C 423.833,102.5 424.167,102.5 424.5,102.5C 426.845,103.988 427.179,105.988 425.5,108.5C 424.167,108.5 422.833,108.5 421.5,108.5C 421.704,106.315 422.37,104.315 423.5,102.5 Z"/></g>
<g><path style="opacity:0.055" fill="#f6f0ef" d="M 402.5,106.5 C 401.833,107.167 401.833,107.167 402.5,106.5 Z"/></g>
<g><path style="opacity:1" fill="#dfab42" d="M 368.5,105.5 C 370.5,107.833 372.5,110.167 374.5,112.5C 372.388,111.56 370.388,110.394 368.5,109C 367.365,108.251 366.365,108.417 365.5,109.5C 367.296,111.9 369.63,113.567 372.5,114.5C 372.5,115.167 372.167,115.5 371.5,115.5C 368.373,113.721 365.04,112.387 361.5,111.5C 362.63,109.685 363.296,107.685 363.5,105.5C 365.167,105.5 366.833,105.5 368.5,105.5 Z"/></g>
<g><path style="opacity:0.937" fill="#c09b77" d="M 368.5,105.5 C 372.298,106.059 374.964,108.059 376.5,111.5C 376.043,112.298 375.376,112.631 374.5,112.5C 372.5,110.167 370.5,107.833 368.5,105.5 Z"/></g>
<g><path style="opacity:0.012" fill="#f9f8f2" d="M 403.5,108.5 C 402.833,109.167 402.833,109.167 403.5,108.5 Z"/></g>
<g><path style="opacity:1" fill="#9e5225" d="M 374.5,112.5 C 374.5,112.833 374.5,113.167 374.5,113.5C 373.833,113.833 373.167,114.167 372.5,114.5C 369.63,113.567 367.296,111.9 365.5,109.5C 366.365,108.417 367.365,108.251 368.5,109C 370.388,110.394 372.388,111.56 374.5,112.5 Z"/></g>
<g><path style="opacity:0.898" fill="#e6dac2" d="M 387.5,121.5 C 386.662,121.158 386.328,120.492 386.5,119.5C 393.441,116.541 393.107,114.875 385.5,114.5C 387.715,111.995 388.881,108.995 389,105.5C 390.444,103.845 392.278,103.178 394.5,103.5C 396.034,111.086 393.701,117.086 387.5,121.5 Z"/></g>
<g><path style="opacity:0.035" fill="#e7c6bd" d="M 410.5,112.5 C 408.801,112.34 407.134,112.506 405.5,113C 404.837,114.518 403.837,115.685 402.5,116.5C 402.5,115.833 402.167,115.5 401.5,115.5C 401.918,114.778 402.584,114.278 403.5,114C 401.866,113.506 400.199,113.34 398.5,113.5C 398.744,109.211 400.411,108.544 403.5,111.5C 405.104,111.061 406.604,110.394 408,109.5C 409.31,110.13 410.144,111.13 410.5,112.5 Z"/></g>
<g><path style="opacity:0.004" fill="#edfef4" d="M 416.5,113.5 C 416.897,112.475 417.563,112.308 418.5,113C 417.906,113.464 417.239,113.631 416.5,113.5 Z"/></g>
<g><path style="opacity:0.984" fill="#b08355" d="M 361.5,111.5 C 365.04,112.387 368.373,113.721 371.5,115.5C 371.158,116.338 370.492,116.672 369.5,116.5C 366.151,115.831 363.484,114.164 361.5,111.5 Z"/></g>
<g><path style="opacity:0.627" fill="#cc6455" d="M 398.5,113.5 C 400.199,113.34 401.866,113.506 403.5,114C 402.584,114.278 401.918,114.778 401.5,115.5C 399.821,115.715 398.821,115.048 398.5,113.5 Z"/></g>
<g><path style="opacity:1" fill="#cb674c" d="M 410.5,112.5 C 412.795,113.475 414.795,114.808 416.5,116.5C 416.5,116.833 416.5,117.167 416.5,117.5C 413.951,117.613 411.618,116.946 409.5,115.5C 407.083,115.994 405.416,117.328 404.5,119.5C 403.292,120.234 401.959,120.567 400.5,120.5C 400.5,120.167 400.5,119.833 400.5,119.5C 400.557,118.391 400.89,117.391 401.5,116.5C 401.833,116.5 402.167,116.5 402.5,116.5C 403.837,115.685 404.837,114.518 405.5,113C 407.134,112.506 408.801,112.34 410.5,112.5 Z"/></g>
<g><path style="opacity:0.635" fill="#e3c0bd" d="M 380.5,109.5 C 381.117,109.611 381.617,109.944 382,110.5C 382.497,113.146 382.664,115.813 382.5,118.5C 380.335,118.884 378.668,118.217 377.5,116.5C 378.312,114.055 379.312,111.722 380.5,109.5 Z"/></g>
<g><path style="opacity:0.949" fill="#833632" d="M 379.5,114.5 C 381.465,114.948 381.798,115.948 380.5,117.5C 379.614,116.675 379.281,115.675 379.5,114.5 Z"/></g>
<g><path style="opacity:0.031" fill="#f8f6e2" d="M 398.5,113.5 C 398.821,115.048 399.821,115.715 401.5,115.5C 401.5,115.833 401.5,116.167 401.5,116.5C 399.011,116.702 396.677,116.202 394.5,115C 395.563,113.812 396.897,113.312 398.5,113.5 Z"/></g>
<g><path style="opacity:0.031" fill="#ede2d2" d="M 374.5,113.5 C 374.657,114.873 374.49,116.207 374,117.5C 372.479,117.481 370.979,117.148 369.5,116.5C 370.492,116.672 371.158,116.338 371.5,115.5C 372.167,115.5 372.5,115.167 372.5,114.5C 373.167,114.167 373.833,113.833 374.5,113.5 Z"/></g>
<g><path style="opacity:1" fill="#bf7058" d="M 385.5,114.5 C 393.107,114.875 393.441,116.541 386.5,119.5C 385.699,117.958 385.366,116.292 385.5,114.5 Z"/></g>
<g><path style="opacity:0.631" fill="#c3c1c2" d="M 261.5,115.5 C 265.473,118.806 269.14,122.473 272.5,126.5C 267.833,123.833 264.167,120.167 261.5,115.5 Z"/></g>
<g><path style="opacity:1" fill="#dcc652" d="M 416.5,117.5 C 417.5,117.833 418.167,118.5 418.5,119.5C 416.297,119.604 414.297,120.27 412.5,121.5C 412.5,120.5 412.5,119.5 412.5,118.5C 410.738,118.643 409.071,118.309 407.5,117.5C 406.735,118.612 405.735,119.279 404.5,119.5C 405.416,117.328 407.083,115.994 409.5,115.5C 411.618,116.946 413.951,117.613 416.5,117.5 Z"/></g>
<g><path style="opacity:0.012" fill="#fef0f3" d="M 395.5,118.5 C 396.833,119.167 396.833,119.167 395.5,118.5 Z"/></g>
<g><path style="opacity:0.361" fill="#f0d1b3" d="M 416.5,117.5 C 416.5,117.167 416.5,116.833 416.5,116.5C 419.292,116.622 421.292,117.956 422.5,120.5C 421.167,120.167 419.833,119.833 418.5,119.5C 418.167,118.5 417.5,117.833 416.5,117.5 Z"/></g>
<g><path style="opacity:0.031" fill="#f0f6ee" d="M 385.5,114.5 C 385.366,116.292 385.699,117.958 386.5,119.5C 385.094,119.973 384.427,120.973 384.5,122.5C 383.711,122.217 383.044,121.717 382.5,121C 383.926,118.955 384.926,116.788 385.5,114.5 Z"/></g>
<g><path style="opacity:1" fill="#eac641" d="M 404.5,119.5 C 406.493,120.472 406.826,121.805 405.5,123.5C 403.167,122.167 400.833,122.167 398.5,123.5C 398.782,122.222 399.449,121.222 400.5,120.5C 401.959,120.567 403.292,120.234 404.5,119.5 Z"/></g>
<g><path style="opacity:1" fill="#d0e165" d="M 412.5,121.5 C 410.908,124.533 408.574,125.199 405.5,123.5C 406.826,121.805 406.493,120.472 404.5,119.5C 405.735,119.279 406.735,118.612 407.5,117.5C 409.071,118.309 410.738,118.643 412.5,118.5C 412.5,119.5 412.5,120.5 412.5,121.5 Z"/></g>
<g><path style="opacity:0.153" fill="#e4d4c1" d="M 387.5,121.5 C 388.315,122.429 389.148,123.429 390,124.5C 391.292,123.209 392.458,123.209 393.5,124.5C 391.883,125.038 390.216,125.371 388.5,125.5C 387.486,124.326 386.153,123.66 384.5,123.5C 384.5,123.167 384.5,122.833 384.5,122.5C 385.791,122.737 386.791,122.404 387.5,121.5 Z"/></g>
<g><path style="opacity:0.784" fill="#c6b5a9" d="M 375.5,128.5 C 372.95,128.439 371.45,127.106 371,124.5C 370.517,125.448 370.351,126.448 370.5,127.5C 367.568,125.172 367.902,123.339 371.5,122C 370.289,121.107 370.289,120.274 371.5,119.5C 372.308,121.423 372.808,123.423 373,125.5C 373.698,126.691 374.531,127.691 375.5,128.5 Z"/></g>
<g><path style="opacity:1" fill="#cb5741" d="M 418.5,119.5 C 419.833,119.833 421.167,120.167 422.5,120.5C 424.196,120.685 425.529,121.519 426.5,123C 425.956,123.717 425.289,124.217 424.5,124.5C 423.213,125.768 422.213,125.435 421.5,123.5C 420.638,124.766 419.971,126.099 419.5,127.5C 419.5,127.833 419.5,128.167 419.5,128.5C 412.485,128.578 405.485,128.911 398.5,129.5C 398.068,128.29 397.401,127.29 396.5,126.5C 397.167,125.5 397.833,124.5 398.5,123.5C 400.833,122.167 403.167,122.167 405.5,123.5C 408.574,125.199 410.908,124.533 412.5,121.5C 414.297,120.27 416.297,119.604 418.5,119.5 Z"/></g>
<g><path style="opacity:0.894" fill="#edcd97" d="M 424.5,124.5 C 424.782,125.778 425.449,126.778 426.5,127.5C 424.167,127.5 421.833,127.5 419.5,127.5C 419.971,126.099 420.638,124.766 421.5,123.5C 422.213,125.435 423.213,125.768 424.5,124.5 Z"/></g>
<g><path style="opacity:0.847" fill="#927b7d" d="M 361.5,127.5 C 355.848,126.968 350.181,126.635 344.5,126.5C 346.117,125.028 348.117,124.361 350.5,124.5C 354.489,124.745 358.156,125.745 361.5,127.5 Z"/></g>
<g><path style="opacity:0.008" fill="#f5f7f5" d="M 377.5,125.5 C 378.833,126.167 378.833,126.167 377.5,125.5 Z"/></g>
<g><path style="opacity:0.196" fill="#f2d9c6" d="M 400.5,119.5 C 400.5,119.833 400.5,120.167 400.5,120.5C 399.449,121.222 398.782,122.222 398.5,123.5C 397.833,124.5 397.167,125.5 396.5,126.5C 394.973,126.573 393.973,125.906 393.5,124.5C 394.552,124.649 395.552,124.483 396.5,124C 397.155,121.841 398.488,120.341 400.5,119.5 Z"/></g>
<g><path style="opacity:0.016" fill="#eef7f2" d="M 365.5,126.5 C 366.833,127.167 366.833,127.167 365.5,126.5 Z"/></g>
<g><path style="opacity:0.055" fill="#fcf4de" d="M 383.5,125.5 C 382.248,127.001 381.248,128.668 380.5,130.5C 380.167,130.5 379.833,130.5 379.5,130.5C 379.5,128.833 379.5,127.167 379.5,125.5C 380.833,125.5 382.167,125.5 383.5,125.5 Z"/></g>
<g><path style="opacity:1" fill="#db9757" d="M 384.5,123.5 C 386.153,123.66 387.486,124.326 388.5,125.5C 387.925,127.411 386.925,129.078 385.5,130.5C 383.833,130.5 382.167,130.5 380.5,130.5C 381.248,128.668 382.248,127.001 383.5,125.5C 383.328,124.508 383.662,123.842 384.5,123.5 Z"/></g>
<g><path style="opacity:1" fill="#875146" d="M 393.5,124.5 C 393.973,125.906 394.973,126.573 396.5,126.5C 397.401,127.29 398.068,128.29 398.5,129.5C 394.102,129.294 389.768,129.627 385.5,130.5C 386.925,129.078 387.925,127.411 388.5,125.5C 390.216,125.371 391.883,125.038 393.5,124.5 Z"/></g>
<g><path style="opacity:0.99" fill="#552f30" d="M 344.5,126.5 C 350.181,126.635 355.848,126.968 361.5,127.5C 362.492,127.328 363.158,127.662 363.5,128.5C 362.828,129.267 361.995,129.934 361,130.5C 357.066,129.179 353.233,129.179 349.5,130.5C 348.064,131.429 346.731,132.595 345.5,134C 344.563,134.692 343.897,134.525 343.5,133.5C 343.448,131.097 343.781,128.764 344.5,126.5 Z"/></g>
<g><path style="opacity:0.012" fill="#f1f4f7" d="M 367.5,128.5 C 368.833,129.167 368.833,129.167 367.5,128.5 Z"/></g>
<g><path style="opacity:0.114" fill="#f3d9d0" d="M 370.5,127.5 C 371.354,128.632 371.354,129.965 370.5,131.5C 369.5,131.5 368.5,131.5 367.5,131.5C 367.5,131.167 367.5,130.833 367.5,130.5C 369.144,130.19 370.144,129.19 370.5,127.5 Z"/></g>
<g><path style="opacity:0.42" fill="#b9a8a7" d="M 344.5,126.5 C 343.781,128.764 343.448,131.097 343.5,133.5C 342.853,132.726 342.52,131.726 342.5,130.5C 342.34,128.645 343.007,127.312 344.5,126.5 Z"/></g>
<g><path style="opacity:1" fill="#a36241" d="M 375.5,128.5 C 375.5,129.5 375.5,130.5 375.5,131.5C 373.833,131.5 372.167,131.5 370.5,131.5C 371.354,129.965 371.354,128.632 370.5,127.5C 370.351,126.448 370.517,125.448 371,124.5C 371.45,127.106 372.95,128.439 375.5,128.5 Z"/></g>
<g><path style="opacity:0.616" fill="#ab938f" d="M 375.5,128.5 C 376.833,129.167 378.167,129.833 379.5,130.5C 378.432,131.434 377.099,131.768 375.5,131.5C 375.5,130.5 375.5,129.5 375.5,128.5 Z"/></g>
<g><path style="opacity:1" fill="#757473" d="M 293.5,134.5 C 294.167,134.833 294.833,135.167 295.5,135.5C 305.186,145.685 315.019,155.685 325,165.5C 326.835,169.262 326.835,172.928 325,176.5C 324.722,175.584 324.222,174.918 323.5,174.5C 322.415,172.413 320.749,171.08 318.5,170.5C 312.676,165.94 307.343,160.94 302.5,155.5C 301.5,153.833 300.167,152.5 298.5,151.5C 296.5,150.167 294.833,148.5 293.5,146.5C 291.1,143.097 288.1,140.43 284.5,138.5C 280.112,134.779 276.112,130.779 272.5,126.5C 269.14,122.473 265.473,118.806 261.5,115.5C 260.781,113.236 260.448,110.903 260.5,108.5C 262.591,108.318 264.591,108.652 266.5,109.5C 271.324,113.491 275.657,117.991 279.5,123C 280.5,123.333 281.5,123.667 282.5,124C 285.266,127.522 288.266,130.855 291.5,134C 292.094,134.464 292.761,134.631 293.5,134.5 Z"/></g>
<g><path style="opacity:1" fill="#5b2620" d="M 419.5,128.5 C 421.548,128.16 422.548,128.493 422.5,129.5C 420.265,129.205 418.265,129.539 416.5,130.5C 416.5,131.833 416.5,133.167 416.5,134.5C 417.675,134.281 418.675,134.614 419.5,135.5C 419.062,136.506 418.396,136.506 417.5,135.5C 416.575,136.357 415.908,137.357 415.5,138.5C 415.167,138.5 414.833,138.5 414.5,138.5C 415.265,135.904 415.599,133.237 415.5,130.5C 413.585,130.216 411.919,130.549 410.5,131.5C 408.396,131.201 406.396,131.534 404.5,132.5C 404.624,133.107 404.957,133.44 405.5,133.5C 405.5,134.167 405.167,134.5 404.5,134.5C 404.167,134.5 403.833,134.5 403.5,134.5C 402.244,134.096 401.077,133.429 400,132.5C 398.97,132.836 398.47,133.503 398.5,134.5C 396.179,134.229 394.179,134.896 392.5,136.5C 391.3,135.469 389.966,134.635 388.5,134C 391.553,133.821 394.553,133.321 397.5,132.5C 397.167,132.167 396.833,131.833 396.5,131.5C 393.242,132.417 389.909,132.751 386.5,132.5C 386.5,135.5 386.5,138.5 386.5,141.5C 386.167,141.5 385.833,141.5 385.5,141.5C 385.5,138.5 385.5,135.5 385.5,132.5C 383.517,132.157 382.183,132.824 381.5,134.5C 380.25,134.423 379.417,133.756 379,132.5C 378.536,133.094 378.369,133.761 378.5,134.5C 377.5,134.5 376.5,134.5 375.5,134.5C 375.205,136.735 375.539,138.735 376.5,140.5C 376.5,140.833 376.5,141.167 376.5,141.5C 376.167,141.5 375.833,141.5 375.5,141.5C 375.167,141.5 374.833,141.5 374.5,141.5C 373.041,138.876 371.375,136.542 369.5,134.5C 367.865,133.185 366.199,133.185 364.5,134.5C 363.222,131.111 364.222,130.111 367.5,131.5C 368.5,131.5 369.5,131.5 370.5,131.5C 372.167,131.5 373.833,131.5 375.5,131.5C 377.099,131.768 378.432,131.434 379.5,130.5C 379.833,130.5 380.167,130.5 380.5,130.5C 382.167,130.5 383.833,130.5 385.5,130.5C 389.768,129.627 394.102,129.294 398.5,129.5C 405.485,128.911 412.485,128.578 419.5,128.5 Z M 405.5,137.5 C 405.948,135.535 406.948,135.202 408.5,136.5C 407.606,136.517 406.606,136.851 405.5,137.5 Z M 401.5,138.5 C 400.761,138.631 400.094,138.464 399.5,138C 400.833,137.333 400.833,136.667 399.5,136C 402.219,135.406 402.886,136.24 401.5,138.5 Z"/></g>
<g><path style="opacity:0.863" fill="#43593b" d="M 416.5,130.5 C 418.265,129.539 420.265,129.205 422.5,129.5C 422.5,129.833 422.5,130.167 422.5,130.5C 422.5,130.833 422.5,131.167 422.5,131.5C 422.5,132.167 422.5,132.833 422.5,133.5C 421.833,133.5 421.167,133.5 420.5,133.5C 419.074,132.659 417.74,131.659 416.5,130.5 Z"/></g>
<g><path style="opacity:0.098" fill="#f0e2e2" d="M 422.5,131.5 C 422.5,131.167 422.5,130.833 422.5,130.5C 424.552,131.053 424.885,132.053 423.5,133.5C 423.672,132.508 423.338,131.842 422.5,131.5 Z"/></g>
<g><path style="opacity:1" fill="#a04542" d="M 414.5,138.5 C 413.791,139.404 412.791,139.737 411.5,139.5C 411.721,136.721 411.388,134.054 410.5,131.5C 411.919,130.549 413.585,130.216 415.5,130.5C 415.599,133.237 415.265,135.904 414.5,138.5 Z"/></g>
<g><path style="opacity:0.796" fill="#8a8158" d="M 416.5,130.5 C 417.74,131.659 419.074,132.659 420.5,133.5C 420.5,134.833 421.167,135.5 422.5,135.5C 422.5,136.833 422.5,138.167 422.5,139.5C 420.167,139.5 417.833,139.5 415.5,139.5C 415.5,139.167 415.5,138.833 415.5,138.5C 415.908,137.357 416.575,136.357 417.5,135.5C 418.396,136.506 419.062,136.506 419.5,135.5C 418.675,134.614 417.675,134.281 416.5,134.5C 416.5,133.167 416.5,131.833 416.5,130.5 Z"/></g>
<g><path style="opacity:0.831" fill="#98737d" d="M 385.5,141.5 C 384.167,141.5 382.833,141.5 381.5,141.5C 381.5,142.833 381.5,144.167 381.5,145.5C 379.703,145.065 377.703,145.065 375.5,145.5C 375.5,144.167 375.5,142.833 375.5,141.5C 375.833,141.5 376.167,141.5 376.5,141.5C 376.281,142.675 376.614,143.675 377.5,144.5C 379.025,141.437 381.025,138.77 383.5,136.5C 382.757,135.818 382.091,135.151 381.5,134.5C 382.183,132.824 383.517,132.157 385.5,132.5C 385.5,135.5 385.5,138.5 385.5,141.5 Z"/></g>
<g><path style="opacity:0.584" fill="#d3d2d3" d="M 284.5,138.5 C 288.1,140.43 291.1,143.097 293.5,146.5C 289.9,144.57 286.9,141.903 284.5,138.5 Z"/></g>
<g><path style="opacity:1" fill="#bc6942" d="M 378.5,134.5 C 378.741,136.898 378.074,138.898 376.5,140.5C 375.539,138.735 375.205,136.735 375.5,134.5C 376.5,134.5 377.5,134.5 378.5,134.5 Z"/></g>
<g><path style="opacity:0.306" fill="#e0d1ca" d="M 422.5,135.5 C 423.586,135.62 424.253,136.287 424.5,137.5C 424.253,138.713 423.586,139.38 422.5,139.5C 422.5,138.167 422.5,136.833 422.5,135.5 Z"/></g>
<g><path style="opacity:0.98" fill="#85446a" d="M 381.5,134.5 C 382.091,135.151 382.757,135.818 383.5,136.5C 381.025,138.77 379.025,141.437 377.5,144.5C 376.614,143.675 376.281,142.675 376.5,141.5C 376.5,141.167 376.5,140.833 376.5,140.5C 378.074,138.898 378.741,136.898 378.5,134.5C 378.369,133.761 378.536,133.094 379,132.5C 379.417,133.756 380.25,134.423 381.5,134.5 Z"/></g>
<g><path style="opacity:0.994" fill="#6b4b4f" d="M 398.5,134.5 C 398.5,136.167 398.5,137.833 398.5,139.5C 399.791,139.737 400.791,139.404 401.5,138.5C 403.176,137.817 403.843,136.483 403.5,134.5C 403.833,134.5 404.167,134.5 404.5,134.5C 404.263,135.791 404.596,136.791 405.5,137.5C 405.389,138.117 405.056,138.617 404.5,139C 406.075,138.621 407.575,138.788 409,139.5C 409.497,137.19 409.663,134.857 409.5,132.5C 407.901,132.232 406.568,132.566 405.5,133.5C 404.957,133.44 404.624,133.107 404.5,132.5C 406.396,131.534 408.396,131.201 410.5,131.5C 411.388,134.054 411.721,136.721 411.5,139.5C 412.791,139.737 413.791,139.404 414.5,138.5C 414.833,138.5 415.167,138.5 415.5,138.5C 415.5,138.833 415.5,139.167 415.5,139.5C 415.167,140.167 414.833,140.833 414.5,141.5C 413.833,141.5 413.167,141.5 412.5,141.5C 411.167,141.833 411.167,142.167 412.5,142.5C 412.5,143.167 412.5,143.833 412.5,144.5C 412.414,145.496 412.748,146.329 413.5,147C 410.046,147.628 409.713,148.795 412.5,150.5C 411.624,150.369 410.957,150.702 410.5,151.5C 413.537,152.741 416.537,152.741 419.5,151.5C 419.5,151.833 419.5,152.167 419.5,152.5C 419.5,152.833 419.5,153.167 419.5,153.5C 418.791,154.404 417.791,154.737 416.5,154.5C 413.219,154.42 410.219,155.087 407.5,156.5C 404.781,157.913 401.781,158.58 398.5,158.5C 394.162,158.378 393.828,158.045 397.5,157.5C 397.768,155.901 397.434,154.568 396.5,153.5C 396.167,153.5 395.833,153.5 395.5,153.5C 395.904,152.244 396.571,151.077 397.5,150C 397.408,147.069 397.074,144.236 396.5,141.5C 396.567,140.041 396.234,138.708 395.5,137.5C 392.419,138.538 389.419,139.872 386.5,141.5C 386.5,138.5 386.5,135.5 386.5,132.5C 389.909,132.751 393.242,132.417 396.5,131.5C 396.833,131.833 397.167,132.167 397.5,132.5C 394.553,133.321 391.553,133.821 388.5,134C 389.966,134.635 391.3,135.469 392.5,136.5C 394.179,134.896 396.179,134.229 398.5,134.5 Z M 405.5,137.5 C 406.606,136.851 407.606,136.517 408.5,136.5C 406.948,135.202 405.948,135.535 405.5,137.5 Z M 401.5,138.5 C 402.886,136.24 402.219,135.406 399.5,136C 400.833,136.667 400.833,137.333 399.5,138C 400.094,138.464 400.761,138.631 401.5,138.5 Z M 401.5,141.5 C 401.833,141.5 402.167,141.5 402.5,141.5C 402.875,144.907 401.875,145.407 399.5,143C 400.416,142.722 401.082,142.222 401.5,141.5 Z M 402.5,147.5 C 402.539,149.359 401.706,150.692 400,151.5C 399.51,150.207 399.343,148.873 399.5,147.5C 400.5,147.5 401.5,147.5 402.5,147.5 Z M 400.5,155.5 C 399.957,155.44 399.624,155.107 399.5,154.5C 400.365,153.417 401.365,153.251 402.5,154C 401.584,154.278 400.918,154.778 400.5,155.5 Z"/></g>
<g><path style="opacity:0.631" fill="#ae9597" d="M 405.5,137.5 C 404.596,136.791 404.263,135.791 404.5,134.5C 405.167,134.5 405.5,134.167 405.5,133.5C 406.568,132.566 407.901,132.232 409.5,132.5C 409.663,134.857 409.497,137.19 409,139.5C 407.575,138.788 406.075,138.621 404.5,139C 405.056,138.617 405.389,138.117 405.5,137.5 Z M 405.5,137.5 C 406.606,136.851 407.606,136.517 408.5,136.5C 406.948,135.202 405.948,135.535 405.5,137.5 Z"/></g>
<g><path style="opacity:0.471" fill="#b5a6a4" d="M 403.5,134.5 C 403.843,136.483 403.176,137.817 401.5,138.5C 400.791,139.404 399.791,139.737 398.5,139.5C 398.5,137.833 398.5,136.167 398.5,134.5C 398.47,133.503 398.97,132.836 400,132.5C 401.077,133.429 402.244,134.096 403.5,134.5 Z M 401.5,138.5 C 402.886,136.24 402.219,135.406 399.5,136C 400.833,136.667 400.833,137.333 399.5,138C 400.094,138.464 400.761,138.631 401.5,138.5 Z"/></g>
<g><path style="opacity:0.678" fill="#c0adad" d="M 369.5,134.5 C 371.375,136.542 373.041,138.876 374.5,141.5C 374.82,144.898 374.487,148.232 373.5,151.5C 372.893,151.376 372.56,151.043 372.5,150.5C 373.507,147.857 373.507,147.523 372.5,149.5C 371.442,148.4 370.608,147.066 370,145.5C 369.501,141.848 369.335,138.182 369.5,134.5 Z M 370.5,141.5 C 371.397,142.598 372.23,142.598 373,141.5C 373.483,142.448 373.649,143.448 373.5,144.5C 372.5,144.5 371.5,144.5 370.5,144.5C 370.5,143.5 370.5,142.5 370.5,141.5 Z"/></g>
<g><path style="opacity:1" fill="#642974" d="M 395.5,137.5 C 396.234,138.708 396.567,140.041 396.5,141.5C 395.833,143.167 395.167,144.833 394.5,146.5C 393.127,146.343 391.793,146.51 390.5,147C 389.449,148.385 388.116,149.385 386.5,150C 385.62,151.356 385.286,152.856 385.5,154.5C 385.5,154.833 385.5,155.167 385.5,155.5C 385.167,155.5 384.833,155.5 384.5,155.5C 383.791,154.596 382.791,154.263 381.5,154.5C 381.5,151.5 381.5,148.5 381.5,145.5C 384.5,145.833 385.833,144.5 385.5,141.5C 385.833,141.5 386.167,141.5 386.5,141.5C 389.419,139.872 392.419,138.538 395.5,137.5 Z"/></g>
<g><path style="opacity:1" fill="#4f2d2f" d="M 419.5,128.5 C 419.5,128.167 419.5,127.833 419.5,127.5C 421.833,127.5 424.167,127.5 426.5,127.5C 426.5,127.833 426.5,128.167 426.5,128.5C 427.085,136.772 426.418,144.772 424.5,152.5C 422.833,152.5 421.167,152.5 419.5,152.5C 419.5,152.167 419.5,151.833 419.5,151.5C 420.167,151.5 420.5,151.167 420.5,150.5C 421.833,150.5 423.167,150.5 424.5,150.5C 424.81,147.287 424.477,144.287 423.5,141.5C 423.167,141.5 422.833,141.5 422.5,141.5C 421.833,141.5 421.167,141.5 420.5,141.5C 418.653,140.427 416.653,140.427 414.5,141.5C 414.833,140.833 415.167,140.167 415.5,139.5C 417.833,139.5 420.167,139.5 422.5,139.5C 423.586,139.38 424.253,138.713 424.5,137.5C 424.253,136.287 423.586,135.62 422.5,135.5C 421.167,135.5 420.5,134.833 420.5,133.5C 421.167,133.5 421.833,133.5 422.5,133.5C 422.833,133.5 423.167,133.5 423.5,133.5C 424.885,132.053 424.552,131.053 422.5,130.5C 422.5,130.167 422.5,129.833 422.5,129.5C 422.548,128.493 421.548,128.16 419.5,128.5 Z"/></g>
<g><path style="opacity:0.31" fill="#debadf" d="M 385.5,141.5 C 385.833,144.5 384.5,145.833 381.5,145.5C 381.5,144.167 381.5,142.833 381.5,141.5C 382.833,141.5 384.167,141.5 385.5,141.5 Z"/></g>
<g><path style="opacity:0.024" fill="#f4f2f1" d="M 406.5,143.5 C 406.167,142.167 405.833,142.167 405.5,143.5C 404.957,143.44 404.624,143.107 404.5,142.5C 406.167,141.167 407.833,141.167 409.5,142.5C 408.675,143.386 407.675,143.719 406.5,143.5 Z"/></g>
<g><path style="opacity:0.012" fill="#e7dcd7" d="M 401.5,141.5 C 401.082,142.222 400.416,142.722 399.5,143C 401.875,145.407 402.875,144.907 402.5,141.5C 403.434,142.568 403.768,143.901 403.5,145.5C 400.412,145.803 398.746,144.47 398.5,141.5C 399.5,141.5 400.5,141.5 401.5,141.5 Z M 401.5,141.5 C 401.833,141.5 402.167,141.5 402.5,141.5C 402.875,144.907 401.875,145.407 399.5,143C 400.416,142.722 401.082,142.222 401.5,141.5 Z"/></g>
<g><path style="opacity:0.004" fill="#f2faf7" d="M 364.5,145.5 C 365.833,146.167 365.833,146.167 364.5,145.5 Z"/></g>
<g><path style="opacity:0.875" fill="#bd8080" d="M 396.5,141.5 C 397.074,144.236 397.408,147.069 397.5,150C 396.571,151.077 395.904,152.244 395.5,153.5C 394.508,153.328 393.842,153.662 393.5,154.5C 392.903,154.265 392.57,153.765 392.5,153C 394.003,151.079 394.669,148.912 394.5,146.5C 395.167,144.833 395.833,143.167 396.5,141.5 Z"/></g>
<g><path style="opacity:0.259" fill="#fac7bf" d="M 367.5,146.5 C 368.931,147.78 369.598,149.447 369.5,151.5C 365.726,153.156 364.726,155.823 366.5,159.5C 365.053,158.866 364.387,157.699 364.5,156C 365.418,153.914 366.085,151.747 366.5,149.5C 358.316,149.174 350.316,149.508 342.5,150.5C 342.167,150.5 341.833,150.5 341.5,150.5C 350.167,149.167 358.833,147.833 367.5,146.5 Z"/></g>
<g><path style="opacity:0.673" fill="#9a8b89" d="M 420.5,141.5 C 421.167,141.5 421.833,141.5 422.5,141.5C 422.833,146.833 423.167,146.833 423.5,141.5C 424.477,144.287 424.81,147.287 424.5,150.5C 423.167,150.5 421.833,150.5 420.5,150.5C 420.5,151.167 420.167,151.5 419.5,151.5C 416.537,152.741 413.537,152.741 410.5,151.5C 410.957,150.702 411.624,150.369 412.5,150.5C 409.713,148.795 410.046,147.628 413.5,147C 412.748,146.329 412.414,145.496 412.5,144.5C 415.187,145.061 415.187,144.394 412.5,142.5C 412.5,142.167 412.5,141.833 412.5,141.5C 413.167,141.5 413.833,141.5 414.5,141.5C 416.653,140.427 418.653,140.427 420.5,141.5 Z M 420.5,150.5 C 419.778,150.082 419.278,149.416 419,148.5C 417.484,151.051 416.651,150.718 416.5,147.5C 417.833,147.5 419.167,147.5 420.5,147.5C 420.5,148.5 420.5,149.5 420.5,150.5 Z M 420.5,141.5 C 420.605,146.154 419.271,146.654 416.5,143C 417.708,142.079 419.042,141.579 420.5,141.5 Z M 412.5,150.5 C 413.363,149.537 414.03,149.537 414.5,150.5C 413.743,151.773 413.077,151.773 412.5,150.5 Z"/></g>
<g><path style="opacity:0.4" fill="#9ca7aa" d="M 404.5,147.5 C 406.288,147.215 407.955,147.548 409.5,148.5C 409.39,150.098 409.057,151.765 408.5,153.5C 407.311,154.429 405.978,154.762 404.5,154.5C 404.5,152.167 404.5,149.833 404.5,147.5 Z"/></g>
<g><path style="opacity:1" fill="#8c412e" d="M 394.5,146.5 C 394.669,148.912 394.003,151.079 392.5,153C 392.57,153.765 392.903,154.265 393.5,154.5C 393.03,155.693 392.03,156.36 390.5,156.5C 388.886,156.197 387.552,155.53 386.5,154.5C 386.167,154.5 385.833,154.5 385.5,154.5C 385.286,152.856 385.62,151.356 386.5,150C 388.116,149.385 389.449,148.385 390.5,147C 391.793,146.51 393.127,146.343 394.5,146.5 Z"/></g>
<g><path style="opacity:0.702" fill="#b2a5a2" d="M 402.5,147.5 C 403.473,149.948 403.806,152.615 403.5,155.5C 402.5,155.5 401.5,155.5 400.5,155.5C 400.44,156.043 400.107,156.376 399.5,156.5C 398.513,153.232 398.18,149.898 398.5,146.5C 400.099,146.232 401.432,146.566 402.5,147.5 Z M 402.5,147.5 C 401.5,147.5 400.5,147.5 399.5,147.5C 399.343,148.873 399.51,150.207 400,151.5C 401.706,150.692 402.539,149.359 402.5,147.5 Z M 400.5,155.5 C 400.918,154.778 401.584,154.278 402.5,154C 401.365,153.251 400.365,153.417 399.5,154.5C 399.624,155.107 399.957,155.44 400.5,155.5 Z"/></g>
<g><path style="opacity:1" fill="#fb0302" d="M 452.5,153.5 C 451.89,154.391 451.557,155.391 451.5,156.5C 450.336,185.997 450.169,215.664 451,245.5C 452.33,246.582 453.83,247.249 455.5,247.5C 455.5,252.833 455.5,258.167 455.5,263.5C 447.848,262.626 440.182,262.459 432.5,263C 429.804,263.681 427.471,264.848 425.5,266.5C 425.334,259.825 425.5,253.158 426,246.5C 426.995,245.934 427.828,245.267 428.5,244.5C 428.833,244.5 429.167,244.5 429.5,244.5C 431.735,243.714 432.735,242.048 432.5,239.5C 431.868,219.509 431.202,199.509 430.5,179.5C 428.997,178.948 427.331,178.948 425.5,179.5C 425.66,181.199 425.494,182.866 425,184.5C 424.395,182.519 423.395,182.185 422,183.5C 422.847,179.515 423.347,175.348 423.5,171C 422.383,169.108 420.716,168.275 418.5,168.5C 418.833,165.833 419.167,163.167 419.5,160.5C 421.969,159.393 422.969,157.393 422.5,154.5C 424.898,154.741 426.898,154.074 428.5,152.5C 436.228,150.582 444.228,149.915 452.5,150.5C 452.5,151.5 452.5,152.5 452.5,153.5 Z"/></g>
<g><path style="opacity:0.012" fill="#f2f3f2" d="M 267.5,152.5 C 268.833,153.167 268.833,153.167 267.5,152.5 Z"/></g>
<g><path style="opacity:0.82" fill="#f38b85" d="M 344.5,152.5 C 346.5,152.5 347.5,153.5 347.5,155.5C 347.167,155.5 346.833,155.5 346.5,155.5C 345.833,154.5 345.167,153.5 344.5,152.5 Z"/></g>
<g><path style="opacity:0.108" fill="#cfcfcf" d="M 298.5,151.5 C 300.167,152.5 301.5,153.833 302.5,155.5C 301.662,155.842 301.328,156.508 301.5,157.5C 300.596,156.791 300.263,155.791 300.5,154.5C 299.5,154.5 298.5,154.5 297.5,154.5C 298.11,153.609 298.443,152.609 298.5,151.5 Z"/></g>
<g><path style="opacity:0.639" fill="#e9948e" d="M 462.5,165.5 C 463.816,159.019 464.649,159.352 465,166.5C 465.667,162.167 465.667,157.833 465,153.5C 464.1,155.398 462.934,157.064 461.5,158.5C 460.548,156.955 460.215,155.288 460.5,153.5C 461.268,154.263 461.768,155.263 462,156.5C 462.154,153.475 463.654,151.809 466.5,151.5C 466.575,156.674 466.908,161.841 467.5,167C 465.457,167.64 463.79,167.14 462.5,165.5 Z"/></g>
<g><path style="opacity:0.004" fill="#f8f9f8" d="M 274.5,154.5 C 275.833,155.167 275.833,155.167 274.5,154.5 Z"/></g>
<g><path style="opacity:0.963" fill="#292929" d="M 287.5,153.5 C 290.119,153.232 292.619,153.565 295,154.5C 295.43,157.192 295.263,159.859 294.5,162.5C 294.675,164.621 294.341,166.621 293.5,168.5C 291.5,168.5 289.5,168.5 287.5,168.5C 287.5,163.5 287.5,158.5 287.5,153.5 Z"/></g>
<g><path style="opacity:0.024" fill="#e0d2d3" d="M 416.5,154.5 C 413.781,155.913 410.781,156.58 407.5,156.5C 410.219,155.087 413.219,154.42 416.5,154.5 Z"/></g>
<g><path style="opacity:0.126" fill="#d8d8d8" d="M 287.5,153.5 C 287.5,158.5 287.5,163.5 287.5,168.5C 286.833,168.5 286.167,168.5 285.5,168.5C 285.827,163.786 285.493,159.12 284.5,154.5C 283.817,154.863 283.15,155.196 282.5,155.5C 283.552,153.744 285.219,153.077 287.5,153.5 Z"/></g>
<g><path style="opacity:0.192" fill="#bdbdbd" d="M 291.5,159.5 C 291.167,155.5 290.833,155.5 290.5,159.5C 289.566,158.432 289.232,157.099 289.5,155.5C 290.5,155.5 291.5,155.5 292.5,155.5C 292.768,157.099 292.434,158.432 291.5,159.5 Z"/></g>
<g><path style="opacity:1" fill="#e72b27" d="M 342.5,150.5 C 350.316,149.508 358.316,149.174 366.5,149.5C 366.085,151.747 365.418,153.914 364.5,156C 364.387,157.699 365.053,158.866 366.5,159.5C 367.674,160.514 368.34,161.847 368.5,163.5C 368.833,164.833 369.167,166.167 369.5,167.5C 366.99,167.054 364.99,167.72 363.5,169.5C 363.5,170.167 363.167,170.5 362.5,170.5C 361.833,171.167 361.167,171.833 360.5,172.5C 360.185,170.774 360.019,169.107 360,167.5C 361.84,168.833 362.34,168.666 361.5,167C 363.473,166.505 365.473,166.338 367.5,166.5C 367.31,163.123 365.81,160.456 363,158.5C 362.444,160.595 361.944,160.762 361.5,159C 362.961,156.681 363.961,154.181 364.5,151.5C 357.678,150.182 351.011,150.182 344.5,151.5C 343.833,151.167 343.167,150.833 342.5,150.5 Z"/></g>
<g><path style="opacity:0.894" fill="#6e4c52" d="M 363.5,128.5 C 365.062,128.733 366.395,129.4 367.5,130.5C 367.5,130.833 367.5,131.167 367.5,131.5C 364.222,130.111 363.222,131.111 364.5,134.5C 366.199,133.185 367.865,133.185 369.5,134.5C 369.335,138.182 369.501,141.848 370,145.5C 370.608,147.066 371.442,148.4 372.5,149.5C 372.5,149.833 372.5,150.167 372.5,150.5C 372.56,151.043 372.893,151.376 373.5,151.5C 374.487,148.232 374.82,144.898 374.5,141.5C 374.833,141.5 375.167,141.5 375.5,141.5C 375.5,142.833 375.5,144.167 375.5,145.5C 377.703,145.065 379.703,145.065 381.5,145.5C 381.5,148.5 381.5,151.5 381.5,154.5C 381.5,155.5 381.5,156.5 381.5,157.5C 383.483,157.843 384.817,157.176 385.5,155.5C 385.5,155.167 385.5,154.833 385.5,154.5C 385.833,154.5 386.167,154.5 386.5,154.5C 386.281,155.675 386.614,156.675 387.5,157.5C 389.444,158.189 391.444,158.689 393.5,159C 392.263,159.232 391.263,159.732 390.5,160.5C 386.709,161.953 382.709,163.119 378.5,164C 377.364,165.145 376.364,166.312 375.5,167.5C 375.715,165.821 375.048,164.821 373.5,164.5C 373.889,161.447 373.223,158.78 371.5,156.5C 370.463,155.07 369.796,153.403 369.5,151.5C 369.598,149.447 368.931,147.78 367.5,146.5C 365.422,142.126 363.422,137.626 361.5,133C 357.747,131.011 353.747,130.178 349.5,130.5C 353.233,129.179 357.066,129.179 361,130.5C 361.995,129.934 362.828,129.267 363.5,128.5 Z M 370.5,141.5 C 370.5,142.5 370.5,143.5 370.5,144.5C 371.5,144.5 372.5,144.5 373.5,144.5C 373.649,143.448 373.483,142.448 373,141.5C 372.23,142.598 371.397,142.598 370.5,141.5 Z"/></g>
<g><path style="opacity:0.059" fill="#e8d4e8" d="M 381.5,154.5 C 382.791,154.263 383.791,154.596 384.5,155.5C 384.833,155.5 385.167,155.5 385.5,155.5C 384.817,157.176 383.483,157.843 381.5,157.5C 381.5,156.5 381.5,155.5 381.5,154.5 Z"/></g>
<g><path style="opacity:0.894" fill="#b093b3" d="M 375.5,152.5 C 376.833,152.5 378.167,152.5 379.5,152.5C 379.5,154.167 379.5,155.833 379.5,157.5C 378.167,157.5 376.833,157.5 375.5,157.5C 375.5,155.833 375.5,154.167 375.5,152.5 Z"/></g>
<g><path style="opacity:1" fill="#9e64a2" d="M 375.5,146.5 C 376.833,146.5 378.167,146.5 379.5,146.5C 379.5,148.167 379.5,149.833 379.5,151.5C 378.167,151.5 376.833,151.5 375.5,151.5C 375.5,149.833 375.5,148.167 375.5,146.5 Z"/></g>
<g><path style="opacity:0.725" fill="#b7a1a0" d="M 395.5,153.5 C 395.5,153.833 395.5,154.167 395.5,154.5C 396.167,154.5 396.5,154.167 396.5,153.5C 397.434,154.568 397.768,155.901 397.5,157.5C 393.828,158.045 394.162,158.378 398.5,158.5C 396.162,160.04 393.495,160.706 390.5,160.5C 391.263,159.732 392.263,159.232 393.5,159C 391.444,158.689 389.444,158.189 387.5,157.5C 386.614,156.675 386.281,155.675 386.5,154.5C 387.552,155.53 388.886,156.197 390.5,156.5C 392.03,156.36 393.03,155.693 393.5,154.5C 393.842,153.662 394.508,153.328 395.5,153.5 Z M 395.5,154.5 C 396.463,155.363 396.463,156.03 395.5,156.5C 394.227,155.743 394.227,155.077 395.5,154.5 Z"/></g>
<g><path style="opacity:0.027" fill="#dcdcdc" d="M 266.5,153.5 C 266.833,153.5 267.167,153.5 267.5,153.5C 267.054,156.01 267.72,158.01 269.5,159.5C 269.672,160.492 269.338,161.158 268.5,161.5C 267.167,162.5 267.167,163.5 268.5,164.5C 268.5,165.833 268.5,167.167 268.5,168.5C 267.833,168.5 267.167,168.5 266.5,168.5C 266.893,165.487 266.226,162.82 264.5,160.5C 265.833,160.5 266.5,159.833 266.5,158.5C 266.5,157.167 266.5,155.833 266.5,154.5C 266.5,154.167 266.5,153.833 266.5,153.5 Z"/></g>
<g><path style="opacity:0.439" fill="#a2a2a2" d="M 274.5,155.5 C 274.833,158.167 275.167,160.833 275.5,163.5C 274.322,160.504 272.989,157.504 271.5,154.5C 270.828,155.949 270.161,157.282 269.5,158.5C 269.5,156.833 269.5,155.167 269.5,153.5C 271.554,153.365 273.221,154.032 274.5,155.5 Z"/></g>
<g><path style="opacity:0.467" fill="#c6b2b2" d="M 376.5,160.5 C 375.957,160.44 375.624,160.107 375.5,159.5C 378.833,158.167 382.167,158.167 385.5,159.5C 382.428,161.066 379.428,161.399 376.5,160.5 Z"/></g>
<g><path style="opacity:0.871" fill="#ed8177" d="M 422.5,154.5 C 422.969,157.393 421.969,159.393 419.5,160.5C 419.992,158.181 420.992,156.181 422.5,154.5 Z"/></g>
<g><path style="opacity:0.174" fill="#f8d2cf" d="M 426.5,128.5 C 427.187,133.9 427.854,139.4 428.5,145C 427.663,146.011 427.33,147.178 427.5,148.5C 437.5,148.5 447.5,148.5 457.5,148.5C 457.5,149.5 457.5,150.5 457.5,151.5C 459.179,151.285 460.179,151.952 460.5,153.5C 459.85,153.196 459.183,152.863 458.5,152.5C 457.167,157.167 457.167,161.833 458.5,166.5C 459.308,164.577 459.808,162.577 460,160.5C 460.099,162.653 460.933,164.319 462.5,165.5C 461.531,166.309 460.698,167.309 460,168.5C 459,168.167 458,167.833 457,167.5C 456.826,162.316 456.326,157.316 455.5,152.5C 455.804,151.85 456.137,151.183 456.5,150.5C 447.19,149.502 437.857,149.168 428.5,149.5C 428.5,150.5 428.5,151.5 428.5,152.5C 426.898,154.074 424.898,154.741 422.5,154.5C 421.791,153.596 420.791,153.263 419.5,153.5C 419.5,153.167 419.5,152.833 419.5,152.5C 421.167,152.5 422.833,152.5 424.5,152.5C 426.418,144.772 427.085,136.772 426.5,128.5 Z"/></g>
<g><path style="opacity:0.931" fill="#ef3835" d="M 455.5,152.5 C 455.158,153.338 454.492,153.672 453.5,153.5C 453.167,153.5 452.833,153.5 452.5,153.5C 452.5,152.5 452.5,151.5 452.5,150.5C 444.228,149.915 436.228,150.582 428.5,152.5C 428.5,151.5 428.5,150.5 428.5,149.5C 437.857,149.168 447.19,149.502 456.5,150.5C 456.137,151.183 455.804,151.85 455.5,152.5 Z"/></g>
<g><path style="opacity:0.941" fill="#e22121" d="M 460.5,153.5 C 460.215,155.288 460.548,156.955 461.5,158.5C 462.934,157.064 464.1,155.398 465,153.5C 465.667,157.833 465.667,162.167 465,166.5C 464.649,159.352 463.816,159.019 462.5,165.5C 460.933,164.319 460.099,162.653 460,160.5C 459.808,162.577 459.308,164.577 458.5,166.5C 457.167,161.833 457.167,157.167 458.5,152.5C 459.183,152.863 459.85,153.196 460.5,153.5 Z"/></g>
<g><path style="opacity:1" fill="#292929" d="M 266.5,154.5 C 266.5,155.833 266.5,157.167 266.5,158.5C 262.539,155.794 261.872,156.461 264.5,160.5C 266.226,162.82 266.893,165.487 266.5,168.5C 264.5,168.5 262.5,168.5 260.5,168.5C 260.343,167.127 260.51,165.793 261,164.5C 261.924,166.495 263.09,166.828 264.5,165.5C 264.167,164.833 263.833,164.167 263.5,163.5C 261.129,161.003 260.129,158.003 260.5,154.5C 262.5,154.5 264.5,154.5 266.5,154.5 Z"/></g>
<g><path style="opacity:0.98" fill="#191919" d="M 282.5,156.5 C 282.5,156.167 282.5,155.833 282.5,155.5C 283.15,155.196 283.817,154.863 284.5,154.5C 285.493,159.12 285.827,163.786 285.5,168.5C 284.833,168.5 284.167,168.5 283.5,168.5C 283.663,166.143 283.497,163.81 283,161.5C 281.37,167.899 280.037,167.565 279,160.5C 278.667,162.833 278.333,165.167 278,167.5C 277.333,163.167 277.333,158.833 278,154.5C 278.876,156.725 280.043,158.725 281.5,160.5C 282.429,159.311 282.762,157.978 282.5,156.5 Z"/></g>
<g><path style="opacity:0.008" fill="#e0cfcd" d="M 371.5,156.5 C 373.223,158.78 373.889,161.447 373.5,164.5C 373.167,164.5 372.833,164.5 372.5,164.5C 372.425,161.794 372.092,159.127 371.5,156.5 Z"/></g>
<g><path style="opacity:0.071" fill="#d5d5d5" d="M 296.5,160.5 C 295.908,163.127 295.575,165.794 295.5,168.5C 294.833,168.5 294.167,168.5 293.5,168.5C 294.341,166.621 294.675,164.621 294.5,162.5C 295.167,161.833 295.833,161.167 296.5,160.5 Z"/></g>
<g><path style="opacity:0.661" fill="#8a8a8a" d="M 266.5,153.5 C 266.5,153.833 266.5,154.167 266.5,154.5C 264.5,154.5 262.5,154.5 260.5,154.5C 260.129,158.003 261.129,161.003 263.5,163.5C 262.243,164.623 262.576,165.289 264.5,165.5C 263.09,166.828 261.924,166.495 261,164.5C 260.51,165.793 260.343,167.127 260.5,168.5C 258.998,166.137 259.332,163.97 261.5,162C 259.686,159.519 259.02,156.685 259.5,153.5C 261.833,153.5 264.167,153.5 266.5,153.5 Z"/></g>
<g><path style="opacity:0.969" fill="#2b2b2b" d="M 275.5,163.5 C 275.5,164.167 275.5,164.833 275.5,165.5C 275.5,166.5 275.5,167.5 275.5,168.5C 274.833,168.5 274.167,168.5 273.5,168.5C 273.5,167.5 273.5,166.5 273.5,165.5C 272.209,165.263 271.209,165.596 270.5,166.5C 270.5,166.833 270.5,167.167 270.5,167.5C 270.5,167.833 270.5,168.167 270.5,168.5C 269.833,168.5 269.167,168.5 268.5,168.5C 268.5,167.167 268.5,165.833 268.5,164.5C 268.5,163.5 268.5,162.5 268.5,161.5C 269.338,161.158 269.672,160.492 269.5,159.5C 269.5,159.167 269.5,158.833 269.5,158.5C 270.161,157.282 270.828,155.949 271.5,154.5C 272.989,157.504 274.322,160.504 275.5,163.5 Z"/></g>
<g><path style="opacity:0.947" fill="#3c3c3c" d="M 297.5,154.5 C 298.5,154.5 299.5,154.5 300.5,154.5C 300.263,155.791 300.596,156.791 301.5,157.5C 302.642,161.071 303.309,164.738 303.5,168.5C 301.821,168.715 300.821,168.048 300.5,166.5C 299.791,165.596 298.791,165.263 297.5,165.5C 297.5,166.5 297.5,167.5 297.5,168.5C 296.833,168.5 296.167,168.5 295.5,168.5C 295.575,165.794 295.908,163.127 296.5,160.5C 296.325,158.379 296.659,156.379 297.5,154.5 Z"/></g>
<g><path style="opacity:0.482" fill="#929292" d="M 282.5,156.5 C 282.762,157.978 282.429,159.311 281.5,160.5C 280.043,158.725 278.876,156.725 278,154.5C 277.333,158.833 277.333,163.167 278,167.5C 278.333,165.167 278.667,162.833 279,160.5C 280.037,167.565 281.37,167.899 283,161.5C 283.497,163.81 283.663,166.143 283.5,168.5C 280.661,168.253 277.994,168.253 275.5,168.5C 275.5,167.5 275.5,166.5 275.5,165.5C 276.483,161.702 276.817,157.702 276.5,153.5C 279.766,153.433 281.266,155.099 281,158.5C 281.278,157.584 281.778,156.918 282.5,156.5 Z"/></g>
<g><path style="opacity:0.286" fill="#b9b9b9" d="M 291.5,162.5 C 292.434,163.568 292.768,164.901 292.5,166.5C 291.5,166.5 290.5,166.5 289.5,166.5C 289.215,164.712 289.548,163.045 290.5,161.5C 291.107,161.624 291.44,161.957 291.5,162.5 Z"/></g>
<g><path style="opacity:0.035" fill="#fee5e3" d="M 368.5,163.5 C 370.104,164.287 370.771,165.62 370.5,167.5C 370.167,167.5 369.833,167.5 369.5,167.5C 369.167,166.167 368.833,164.833 368.5,163.5 Z"/></g>
<g><path style="opacity:0.937" fill="#e66c60" d="M 419.5,160.5 C 419.167,163.167 418.833,165.833 418.5,168.5C 417.566,167.432 417.232,166.099 417.5,164.5C 417.66,162.847 418.326,161.514 419.5,160.5 Z"/></g>
<g><path style="opacity:0.169" fill="#cecece" d="M 300.5,166.5 C 299.222,166.782 298.222,167.449 297.5,168.5C 297.5,167.5 297.5,166.5 297.5,165.5C 298.791,165.263 299.791,165.596 300.5,166.5 Z"/></g>
<g><path style="opacity:0.004" fill="#e7e7e7" d="M 270.5,166.5 C 271.209,165.596 272.209,165.263 273.5,165.5C 273.5,166.5 273.5,167.5 273.5,168.5C 272.798,169.116 271.798,169.116 270.5,168.5C 270.5,168.167 270.5,167.833 270.5,167.5C 273.167,167.167 273.167,166.833 270.5,166.5 Z"/></g>
<g><path style="opacity:0.027" fill="#ecd1c6" d="M 369.5,167.5 C 369.833,168.833 370.167,168.833 370.5,167.5C 370.833,167.5 371.167,167.5 371.5,167.5C 370.817,169.176 369.483,169.843 367.5,169.5C 366.833,168.167 366.167,168.167 365.5,169.5C 364.833,169.5 364.167,169.5 363.5,169.5C 364.99,167.72 366.99,167.054 369.5,167.5 Z"/></g>
<g><path style="opacity:0.016" fill="#f2d5d5" d="M 417.5,164.5 C 417.232,166.099 417.566,167.432 418.5,168.5C 418.5,168.833 418.5,169.167 418.5,169.5C 417.833,169.5 417.5,169.833 417.5,170.5C 415.565,169.85 413.565,169.517 411.5,169.5C 412.718,168.839 414.051,168.172 415.5,167.5C 415.942,166.261 416.609,165.261 417.5,164.5 Z"/></g>
<g><path style="opacity:0.004" fill="#e0d4d2" d="M 375.5,167.5 C 375.5,169.167 375.5,170.833 375.5,172.5C 373.078,170.952 373.078,169.286 375.5,167.5 Z"/></g>
<g><path style="opacity:0.09" fill="#fcd9dc" d="M 463.5,173.5 C 462.528,171.507 461.195,171.174 459.5,172.5C 460.183,170.824 461.517,170.157 463.5,170.5C 463.5,171.5 463.5,172.5 463.5,173.5 Z"/></g>
<g><path style="opacity:1" fill="#b0a9a9" d="M 295.5,135.5 C 303.134,142.129 310.801,148.796 318.5,155.5C 321.106,159.609 324.273,163.276 328,166.5C 330.564,172.986 329.898,178.986 326,184.5C 326.126,190.588 325.292,196.255 323.5,201.5C 323.5,192.5 323.5,183.5 323.5,174.5C 324.222,174.918 324.722,175.584 325,176.5C 326.835,172.928 326.835,169.262 325,165.5C 315.019,155.685 305.186,145.685 295.5,135.5 Z"/></g>
<g><path style="opacity:0.529" fill="#f99390" d="M 362.5,170.5 C 362.5,171.5 362.5,172.5 362.5,173.5C 361.596,174.209 361.263,175.209 361.5,176.5C 361.5,177.167 361.5,177.833 361.5,178.5C 360.539,176.735 360.205,174.735 360.5,172.5C 361.167,171.833 361.833,171.167 362.5,170.5 Z"/></g>
<g><path style="opacity:0.988" fill="#502528" d="M 372.5,164.5 C 372.833,164.5 373.167,164.5 373.5,164.5C 375.048,164.821 375.715,165.821 375.5,167.5C 373.078,169.286 373.078,170.952 375.5,172.5C 385.958,174.307 396.625,174.807 407.5,174C 408.823,173.184 409.489,172.017 409.5,170.5C 409.842,169.662 410.508,169.328 411.5,169.5C 413.565,169.517 415.565,169.85 417.5,170.5C 418.388,173.054 418.721,175.721 418.5,178.5C 417.883,178.611 417.383,178.944 417,179.5C 417.511,175.025 415.677,172.858 411.5,173C 410.446,174.388 410.28,175.888 411,177.5C 412.388,178.736 413.554,180.069 414.5,181.5C 412.833,181.5 411.167,181.5 409.5,181.5C 408.5,181.167 407.833,180.5 407.5,179.5C 407.5,178.167 407.5,176.833 407.5,175.5C 396.448,174.857 385.781,175.524 375.5,177.5C 375.5,178.167 375.5,178.833 375.5,179.5C 374.833,179.5 374.5,179.833 374.5,180.5C 373.833,180.5 373.5,180.833 373.5,181.5C 372.833,181.5 372.167,181.5 371.5,181.5C 369.833,181.5 368.167,181.5 366.5,181.5C 364.016,179.455 363.016,176.788 363.5,173.5C 363.733,171.938 364.4,170.605 365.5,169.5C 366.167,169.5 366.833,169.5 367.5,169.5C 369.483,169.843 370.817,169.176 371.5,167.5C 371.557,166.391 371.89,165.391 372.5,164.5 Z"/></g>
<g><path style="opacity:0.427" fill="#b3a1a2" d="M 407.5,179.5 C 406.596,178.791 406.263,177.791 406.5,176.5C 396.085,176.192 385.751,176.525 375.5,177.5C 385.781,175.524 396.448,174.857 407.5,175.5C 407.5,176.833 407.5,178.167 407.5,179.5 Z"/></g>
<g><path style="opacity:0.624" fill="#a5898b" d="M 409.5,170.5 C 409.489,172.017 408.823,173.184 407.5,174C 396.625,174.807 385.958,174.307 375.5,172.5C 385.843,172.816 396.176,172.982 406.5,173C 407.373,171.955 408.373,171.122 409.5,170.5 Z"/></g>
<g><path style="opacity:0.424" fill="#ad8f90" d="M 371.5,174.5 C 372.791,175.542 372.791,176.708 371.5,178C 366.833,179 365.5,177.333 367.5,173C 369.463,172.156 370.796,172.656 371.5,174.5 Z"/></g>
<g><path style="opacity:1" fill="#412b29" d="M 371.5,174.5 C 370.246,178.31 369.246,178.31 368.5,174.5C 369.5,174.5 370.5,174.5 371.5,174.5 Z"/></g>
<g><path style="opacity:1" fill="#e24534" d="M 347.5,155.5 C 350.707,156.532 353.207,158.532 355,161.5C 356.321,169.439 356.821,177.439 356.5,185.5C 355.662,185.158 355.328,184.492 355.5,183.5C 355.666,178.156 355.499,172.823 355,167.5C 354.768,166.263 354.268,165.263 353.5,164.5C 352.857,162.924 351.857,161.59 350.5,160.5C 350.573,158.973 349.906,157.973 348.5,157.5C 348.167,156.833 347.833,156.167 347.5,155.5 Z"/></g>
<g><path style="opacity:0.004" fill="#eec7c2" d="M 418.5,169.5 C 420.922,170.692 421.922,172.692 421.5,175.5C 421.333,176.833 421.167,178.167 421,179.5C 420.617,180.056 420.117,180.389 419.5,180.5C 419.672,179.508 419.338,178.842 418.5,178.5C 418.721,175.721 418.388,173.054 417.5,170.5C 418.167,170.5 418.5,170.167 418.5,169.5 Z"/></g>
<g><path style="opacity:1" fill="#e44940" d="M 463.5,173.5 C 463.816,177.525 463.983,181.525 464,185.5C 462.271,182.921 460.438,182.921 458.5,185.5C 457.614,184.675 457.281,183.675 457.5,182.5C 457.549,178.922 458.215,175.589 459.5,172.5C 461.195,171.174 462.528,171.507 463.5,173.5 Z"/></g>
<g><path style="opacity:0.976" fill="#7c5b58" d="M 418.5,178.5 C 418.5,179.167 418.5,179.833 418.5,180.5C 418.167,180.5 417.833,180.5 417.5,180.5C 416.391,180.557 415.391,180.89 414.5,181.5C 413.554,180.069 412.388,178.736 411,177.5C 410.28,175.888 410.446,174.388 411.5,173C 415.677,172.858 417.511,175.025 417,179.5C 417.383,178.944 417.883,178.611 418.5,178.5 Z"/></g>
<g><path style="opacity:0.557" fill="#f2adb0" d="M 375.5,179.5 C 377.5,179.5 378.5,180.5 378.5,182.5C 376.901,181.438 375.234,181.438 373.5,182.5C 373.5,182.167 373.5,181.833 373.5,181.5C 374.167,181.5 374.5,181.167 374.5,180.5C 375.167,180.5 375.5,180.167 375.5,179.5 Z"/></g>
<g><path style="opacity:0.608" fill="#fd9e8b" d="M 460.5,177.5 C 461.586,177.62 462.253,178.287 462.5,179.5C 462.167,180.167 461.833,180.833 461.5,181.5C 460.571,180.311 460.238,178.978 460.5,177.5 Z"/></g>
<g><path style="opacity:0.176" fill="#edc8c1" d="M 362.5,173.5 C 362.833,173.5 363.167,173.5 363.5,173.5C 363.016,176.788 364.016,179.455 366.5,181.5C 368.167,181.5 369.833,181.5 371.5,181.5C 371.842,182.338 372.508,182.672 373.5,182.5C 371.052,183.473 368.385,183.806 365.5,183.5C 363.413,182.415 362.08,180.749 361.5,178.5C 361.5,177.833 361.5,177.167 361.5,176.5C 362.404,175.791 362.737,174.791 362.5,173.5 Z"/></g>
<g><path style="opacity:1" fill="#f80b06" d="M 360.5,172.5 C 360.205,174.735 360.539,176.735 361.5,178.5C 362.08,180.749 363.413,182.415 365.5,183.5C 369.678,184.571 374.011,184.571 378.5,183.5C 378.932,184.71 379.599,185.71 380.5,186.5C 381.338,186.842 381.672,187.508 381.5,188.5C 381.427,190.027 382.094,191.027 383.5,191.5C 383.157,193.483 383.824,194.817 385.5,195.5C 386.338,195.842 386.672,196.508 386.5,197.5C 386.66,199.153 387.326,200.486 388.5,201.5C 388.75,203.674 389.75,205.341 391.5,206.5C 392.5,210.5 393.5,210.5 394.5,206.5C 394.328,205.508 394.662,204.842 395.5,204.5C 397.588,202.664 398.921,200.331 399.5,197.5C 401.446,196.965 402.446,195.632 402.5,193.5C 403.773,191.287 404.773,188.954 405.5,186.5C 405.328,185.508 405.662,184.842 406.5,184.5C 410.234,184.677 413.901,184.344 417.5,183.5C 418.822,183.33 419.989,183.663 421,184.5C 422.118,186.267 422.618,188.101 422.5,190C 419.694,193.134 416.528,195.967 413,198.5C 412.506,200.134 412.34,201.801 412.5,203.5C 410.346,206.569 408.013,209.569 405.5,212.5C 403.744,218.095 400.91,223.095 397,227.5C 396.495,229.518 395.995,231.518 395.5,233.5C 392.351,233.789 389.351,233.289 386.5,232C 385.73,229.433 384.73,226.933 383.5,224.5C 382.675,223.614 381.675,223.281 380.5,223.5C 380.545,220.923 379.545,218.923 377.5,217.5C 374.209,210.794 371.209,203.794 368.5,196.5C 367.127,196.657 365.793,196.49 364.5,196C 363.922,194.583 362.922,193.75 361.5,193.5C 360.66,191.147 359.326,189.147 357.5,187.5C 356.662,187.158 356.328,186.492 356.5,185.5C 356.821,177.439 356.321,169.439 355,161.5C 353.207,158.532 350.707,156.532 347.5,155.5C 347.5,153.5 346.5,152.5 344.5,152.5C 344.5,152.167 344.5,151.833 344.5,151.5C 351.011,150.182 357.678,150.182 364.5,151.5C 363.961,154.181 362.961,156.681 361.5,159C 361.944,160.762 362.444,160.595 363,158.5C 365.81,160.456 367.31,163.123 367.5,166.5C 365.473,166.338 363.473,166.505 361.5,167C 362.34,168.666 361.84,168.833 360,167.5C 360.019,169.107 360.185,170.774 360.5,172.5 Z"/></g>
<g><path style="opacity:1" fill="#d63631" d="M 378.5,182.5 C 378.5,182.833 378.5,183.167 378.5,183.5C 374.011,184.571 369.678,184.571 365.5,183.5C 368.385,183.806 371.052,183.473 373.5,182.5C 375.234,181.438 376.901,181.438 378.5,182.5 Z"/></g>
<g><path style="opacity:0.02" fill="#f4d3c7" d="M 417.5,180.5 C 417.5,180.833 417.5,181.167 417.5,181.5C 416.167,181.833 416.167,182.167 417.5,182.5C 417.5,182.833 417.5,183.167 417.5,183.5C 413.901,184.344 410.234,184.677 406.5,184.5C 406.351,183.448 406.517,182.448 407,181.5C 407.977,182.774 408.811,182.774 409.5,181.5C 411.167,181.5 412.833,181.5 414.5,181.5C 415.391,180.89 416.391,180.557 417.5,180.5 Z"/></g>
<g><path style="opacity:0.137" fill="#feccc2" d="M 378.5,182.5 C 380.104,183.287 380.771,184.62 380.5,186.5C 379.599,185.71 378.932,184.71 378.5,183.5C 378.5,183.167 378.5,182.833 378.5,182.5 Z"/></g>
<g><path style="opacity:1" fill="#e71811" d="M 418.5,169.5 C 418.5,169.167 418.5,168.833 418.5,168.5C 420.716,168.275 422.383,169.108 423.5,171C 423.347,175.348 422.847,179.515 422,183.5C 423.395,182.185 424.395,182.519 425,184.5C 425.494,182.866 425.66,181.199 425.5,179.5C 427.331,178.948 428.997,178.948 430.5,179.5C 431.202,199.509 431.868,219.509 432.5,239.5C 432.735,242.048 431.735,243.714 429.5,244.5C 430.644,223.21 430.811,201.876 430,180.5C 429.283,181.044 428.783,181.711 428.5,182.5C 427.89,183.391 427.557,184.391 427.5,185.5C 425.412,187.336 424.079,189.669 423.5,192.5C 423.672,193.492 423.338,194.158 422.5,194.5C 421.5,194.833 420.833,195.5 420.5,196.5C 418.491,199.44 415.824,201.773 412.5,203.5C 412.34,201.801 412.506,200.134 413,198.5C 416.528,195.967 419.694,193.134 422.5,190C 422.618,188.101 422.118,186.267 421,184.5C 419.989,183.663 418.822,183.33 417.5,183.5C 417.5,183.167 417.5,182.833 417.5,182.5C 417.5,182.167 417.5,181.833 417.5,181.5C 418.167,181.5 418.5,181.167 418.5,180.5C 418.833,180.5 419.167,180.5 419.5,180.5C 420.117,180.389 420.617,180.056 421,179.5C 421.167,178.167 421.333,176.833 421.5,175.5C 421.922,172.692 420.922,170.692 418.5,169.5 Z"/></g>
<g><path style="opacity:0.102" fill="#feddd3" d="M 428.5,182.5 C 429.404,183.209 429.737,184.209 429.5,185.5C 428.833,185.5 428.167,185.5 427.5,185.5C 427.557,184.391 427.89,183.391 428.5,182.5 Z"/></g>
<g><path style="opacity:0.325" fill="#f3c2bc" d="M 463.5,173.5 C 464.66,177.681 465.66,182.015 466.5,186.5C 464.278,186.822 462.444,186.155 461,184.5C 459.951,186.107 458.451,186.773 456.5,186.5C 456.232,184.901 456.566,183.568 457.5,182.5C 457.281,183.675 457.614,184.675 458.5,185.5C 460.438,182.921 462.271,182.921 464,185.5C 463.983,181.525 463.816,177.525 463.5,173.5 Z"/></g>
<g><path style="opacity:1" fill="#b9b6b6" d="M 272.5,236.5 C 267.834,234.581 264,231.581 261,227.5C 260.744,231.246 261.244,234.913 262.5,238.5C 259.624,233.664 258.291,228.331 258.5,222.5C 258.5,209.833 258.5,197.167 258.5,184.5C 259.5,184.5 260.5,184.5 261.5,184.5C 261.333,195.172 261.5,205.839 262,216.5C 264.314,220.601 266.147,224.934 267.5,229.5C 269.547,231.55 271.214,233.883 272.5,236.5 Z"/></g>
<g><path style="opacity:0.954" fill="#e71f1a" d="M 451.5,156.5 C 451.333,185.835 451.5,215.169 452,244.5C 452.671,245.252 453.504,245.586 454.5,245.5C 454.5,246.167 454.833,246.5 455.5,246.5C 455.5,246.833 455.5,247.167 455.5,247.5C 453.83,247.249 452.33,246.582 451,245.5C 450.169,215.664 450.336,185.997 451.5,156.5 Z"/></g>
<g><path style="opacity:0.224" fill="#f4b5b5" d="M 357.5,187.5 C 359.326,189.147 360.66,191.147 361.5,193.5C 361.5,193.833 361.5,194.167 361.5,194.5C 359.412,192.664 358.079,190.331 357.5,187.5 Z"/></g>
<g><path style="opacity:0.184" fill="#fcccc6" d="M 381.5,188.5 C 382.906,188.973 383.573,189.973 383.5,191.5C 382.094,191.027 381.427,190.027 381.5,188.5 Z"/></g>
<g><path style="opacity:0.149" fill="#fbccc5" d="M 405.5,186.5 C 404.773,188.954 403.773,191.287 402.5,193.5C 402.167,193.5 401.833,193.5 401.5,193.5C 402.079,190.669 403.412,188.336 405.5,186.5 Z"/></g>
<g><path style="opacity:0.082" fill="#fad2ca" d="M 427.5,185.5 C 426.921,188.331 425.588,190.664 423.5,192.5C 424.079,189.669 425.412,187.336 427.5,185.5 Z"/></g>
<g><path style="opacity:0.882" fill="#f38f83" d="M 383.5,191.5 C 384.674,192.514 385.34,193.847 385.5,195.5C 383.824,194.817 383.157,193.483 383.5,191.5 Z"/></g>
<g><path style="opacity:0.307" fill="#feb8b3" d="M 452.5,153.5 C 452.833,153.5 453.167,153.5 453.5,153.5C 452.349,183.458 452.183,213.458 453,243.5C 453.717,244.044 454.217,244.711 454.5,245.5C 453.504,245.586 452.671,245.252 452,244.5C 451.5,215.169 451.333,185.835 451.5,156.5C 451.557,155.391 451.89,154.391 452.5,153.5 Z"/></g>
<g><path style="opacity:0.941" fill="#f0716b" d="M 401.5,193.5 C 401.833,193.5 402.167,193.5 402.5,193.5C 402.446,195.632 401.446,196.965 399.5,197.5C 399.66,195.847 400.326,194.514 401.5,193.5 Z"/></g>
<g><path style="opacity:1" fill="#c41f15" d="M 361.5,193.5 C 362.922,193.75 363.922,194.583 364.5,196C 365.793,196.49 367.127,196.657 368.5,196.5C 371.209,203.794 374.209,210.794 377.5,217.5C 380.133,222.49 382.133,227.823 383.5,233.5C 382.833,233.167 382.167,232.833 381.5,232.5C 381.008,230.181 380.008,228.181 378.5,226.5C 376.593,221.016 373.927,216.016 370.5,211.5C 369.59,208.008 367.924,205.008 365.5,202.5C 365.771,200.62 365.104,199.287 363.5,198.5C 362.326,197.486 361.66,196.153 361.5,194.5C 361.5,194.167 361.5,193.833 361.5,193.5 Z"/></g>
<g><path style="opacity:0.063" fill="#f6d7d2" d="M 422.5,194.5 C 421.172,199.165 418.839,203.165 415.5,206.5C 417.137,203.183 418.804,199.85 420.5,196.5C 420.833,195.5 421.5,194.833 422.5,194.5 Z"/></g>
<g><path style="opacity:1" fill="#e65b4c" d="M 465.5,197.5 C 463.214,198.34 462.881,199.84 464.5,202C 464.164,203.03 463.497,203.53 462.5,203.5C 461.521,196.878 460.521,196.878 459.5,203.5C 458.507,198.88 458.173,194.214 458.5,189.5C 465.677,187.683 468.011,190.35 465.5,197.5 Z"/></g>
<g><path style="opacity:0.086" fill="#fdc3c4" d="M 460.5,191.5 C 461.5,191.5 462.5,191.5 463.5,191.5C 463.5,193.167 463.5,194.833 463.5,196.5C 462.5,196.5 461.5,196.5 460.5,196.5C 460.5,194.833 460.5,193.167 460.5,191.5 Z"/></g>
<g><path style="opacity:0.102" fill="#fdd2d2" d="M 386.5,197.5 C 388.104,198.287 388.771,199.62 388.5,201.5C 387.326,200.486 386.66,199.153 386.5,197.5 Z"/></g>
<g><path style="opacity:0.243" fill="#e8c0b9" d="M 363.5,198.5 C 365.104,199.287 365.771,200.62 365.5,202.5C 364.326,201.486 363.66,200.153 363.5,198.5 Z"/></g>
<g><path style="opacity:0.576" fill="#f49a93" d="M 429.5,244.5 C 429.167,244.5 428.833,244.5 428.5,244.5C 428.191,224.787 428.524,205.121 429.5,185.5C 429.737,184.209 429.404,183.209 428.5,182.5C 428.783,181.711 429.283,181.044 430,180.5C 430.811,201.876 430.644,223.21 429.5,244.5 Z"/></g>
<g><path style="opacity:0.114" fill="#facbc6" d="M 399.5,197.5 C 398.921,200.331 397.588,202.664 395.5,204.5C 396.079,201.669 397.412,199.336 399.5,197.5 Z"/></g>
<g><path style="opacity:0.443" fill="#f7b9bc" d="M 458.5,189.5 C 458.173,194.214 458.507,198.88 459.5,203.5C 460.521,196.878 461.521,196.878 462.5,203.5C 459.802,206.332 457.802,205.832 456.5,202C 457.08,197.684 457.747,193.517 458.5,189.5 Z"/></g>
<g><path style="opacity:0.141" fill="#fcd1d0" d="M 388.5,201.5 C 390.25,202.659 391.25,204.326 391.5,206.5C 389.75,205.341 388.75,203.674 388.5,201.5 Z"/></g>
<g><path style="opacity:0.878" fill="#eeada8" d="M 465.5,197.5 C 465.575,200.206 465.908,202.873 466.5,205.5C 464.62,205.771 463.287,205.104 462.5,203.5C 463.497,203.53 464.164,203.03 464.5,202C 462.881,199.84 463.214,198.34 465.5,197.5 Z"/></g>
<g><path style="opacity:0.027" fill="#e6f8f6" d="M 463.5,207.5 C 462.833,206.167 462.833,206.167 463.5,207.5 Z"/></g>
<g><path style="opacity:0.141" fill="#f4c9c9" d="M 365.5,202.5 C 367.924,205.008 369.59,208.008 370.5,211.5C 368.076,208.992 366.41,205.992 365.5,202.5 Z"/></g>
<g><path style="opacity:0.149" fill="#fddfcd" d="M 391.5,206.5 C 392.5,207.833 393.5,207.833 394.5,206.5C 393.5,210.5 392.5,210.5 391.5,206.5 Z"/></g>
<g><path style="opacity:1" fill="#da2c2d" d="M 464.5,212.5 C 461.981,215.677 462.315,218.677 465.5,221.5C 465.631,222.376 465.298,223.043 464.5,223.5C 463.333,221.833 462.167,220.167 461,218.5C 460.798,220.256 460.298,221.922 459.5,223.5C 458.167,218.833 458.167,214.167 459.5,209.5C 460.281,210.729 460.781,212.062 461,213.5C 461.583,211.998 462.416,210.665 463.5,209.5C 464.386,210.325 464.719,211.325 464.5,212.5 Z"/></g>
<g><path style="opacity:0.131" fill="#edeaeb" d="M 318.5,170.5 C 320.749,171.08 322.415,172.413 323.5,174.5C 323.5,183.5 323.5,192.5 323.5,201.5C 323.5,205.5 323.5,209.5 323.5,213.5C 311.5,213.5 299.5,213.5 287.5,213.5C 287.5,200.167 287.5,186.833 287.5,173.5C 288.495,186.323 288.829,199.323 288.5,212.5C 299.833,212.5 311.167,212.5 322.5,212.5C 322.667,199.829 322.5,187.162 322,174.5C 320.624,173.295 319.458,171.962 318.5,170.5 Z"/></g>
<g><path style="opacity:1" fill="#d70200" d="M 412.5,203.5 C 411.195,207.474 409.861,211.474 408.5,215.5C 407.675,216.386 406.675,216.719 405.5,216.5C 404.555,221.156 402.722,225.489 400,229.5C 399.667,229.167 399.333,228.833 399,228.5C 398.506,230.134 398.34,231.801 398.5,233.5C 397.5,233.5 396.5,233.5 395.5,233.5C 395.995,231.518 396.495,229.518 397,227.5C 400.91,223.095 403.744,218.095 405.5,212.5C 408.013,209.569 410.346,206.569 412.5,203.5 Z"/></g>
<g><path style="opacity:0.247" fill="#f2c6be" d="M 370.5,211.5 C 373.927,216.016 376.593,221.016 378.5,226.5C 375.053,221.941 372.387,216.941 370.5,211.5 Z"/></g>
<g><path style="opacity:0.169" fill="#fad8d0" d="M 463.5,207.5 C 465.484,207.484 466.484,208.484 466.5,210.5C 466.253,211.713 465.586,212.38 464.5,212.5C 464.719,211.325 464.386,210.325 463.5,209.5C 462.416,210.665 461.583,211.998 461,213.5C 460.781,212.062 460.281,210.729 459.5,209.5C 458.167,214.167 458.167,218.833 459.5,223.5C 460.298,221.922 460.798,220.256 461,218.5C 462.167,220.167 463.333,221.833 464.5,223.5C 465.298,223.043 465.631,222.376 465.5,221.5C 466.71,223.176 466.21,224.51 464,225.5C 463.085,224.672 462.419,223.672 462,222.5C 461.667,223.5 461.333,224.5 461,225.5C 460,225.167 459,224.833 458,224.5C 457.171,219.136 457.337,213.802 458.5,208.5C 460.215,208.405 461.881,208.072 463.5,207.5 Z"/></g>
<g><path style="opacity:0.071" fill="#fdd5cb" d="M 464.5,212.5 C 464.67,213.822 464.337,214.989 463.5,216C 464.861,217.584 465.528,219.418 465.5,221.5C 462.315,218.677 461.981,215.677 464.5,212.5 Z"/></g>
<g><path style="opacity:1" fill="#aa1511" d="M 420.5,196.5 C 418.804,199.85 417.137,203.183 415.5,206.5C 409.331,216.167 403.664,226.167 398.5,236.5C 397.29,236.932 396.29,237.599 395.5,238.5C 391.873,237.754 388.206,237.087 384.5,236.5C 383.89,235.609 383.557,234.609 383.5,233.5C 387.61,236.1 391.61,236.1 395.5,233.5C 396.5,233.5 397.5,233.5 398.5,233.5C 398.34,231.801 398.506,230.134 399,228.5C 399.333,228.833 399.667,229.167 400,229.5C 402.722,225.489 404.555,221.156 405.5,216.5C 406.675,216.719 407.675,216.386 408.5,215.5C 409.861,211.474 411.195,207.474 412.5,203.5C 415.824,201.773 418.491,199.44 420.5,196.5 Z"/></g>
<g><path style="opacity:1" fill="#b2aeae" d="M 352.5,227.5 C 352.5,227.833 352.5,228.167 352.5,228.5C 352.167,228.5 351.833,228.5 351.5,228.5C 351.728,226.645 351.061,225.812 349.5,226C 348.333,227.833 347.167,229.667 346,231.5C 343.648,233.03 341.481,234.697 339.5,236.5C 338.5,236.5 337.5,236.5 336.5,236.5C 342.586,231.232 347.419,224.898 351,217.5C 351.805,208.452 351.639,199.452 350.5,190.5C 351,189.5 351.5,188.5 352,187.5C 352.5,200.829 352.667,214.163 352.5,227.5 Z"/></g>
<g><path style="opacity:1" fill="#d50101" d="M 377.5,217.5 C 379.545,218.923 380.545,220.923 380.5,223.5C 381.675,223.281 382.675,223.614 383.5,224.5C 384.73,226.933 385.73,229.433 386.5,232C 389.351,233.289 392.351,233.789 395.5,233.5C 391.61,236.1 387.61,236.1 383.5,233.5C 382.133,227.823 380.133,222.49 377.5,217.5 Z"/></g>
<g><path style="opacity:0.082" fill="#f4dad3" d="M 415.5,206.5 C 414.908,209.691 413.741,212.691 412,215.5C 407.637,222.675 403.137,229.675 398.5,236.5C 403.664,226.167 409.331,216.167 415.5,206.5 Z"/></g>
<g><path style="opacity:0.039" fill="#f9e3db" d="M 378.5,226.5 C 380.008,228.181 381.008,230.181 381.5,232.5C 379.461,231.089 378.461,229.089 378.5,226.5 Z"/></g>
<g><path style="opacity:0.012" fill="#f5e8e2" d="M 351.5,228.5 C 351.833,228.5 352.167,228.5 352.5,228.5C 352.369,229.239 352.536,229.906 353,230.5C 353.667,229.167 354.333,229.167 355,230.5C 355.499,235.155 355.666,239.821 355.5,244.5C 355.167,244.5 354.833,244.5 354.5,244.5C 354.666,240.154 354.499,235.821 354,231.5C 353.155,233.611 352.322,235.611 351.5,237.5C 351.167,234.833 350.833,234.833 350.5,237.5C 350.167,237.5 349.833,237.5 349.5,237.5C 350.167,234.5 350.833,231.5 351.5,228.5 Z"/></g>
<g><path style="opacity:0.059" fill="#f4cfd4" d="M 381.5,232.5 C 382.167,232.833 382.833,233.167 383.5,233.5C 383.557,234.609 383.89,235.609 384.5,236.5C 385.11,237.391 385.443,238.391 385.5,239.5C 383.412,237.664 382.079,235.331 381.5,232.5 Z"/></g>
<g><path style="opacity:0.965" fill="#cb8d85" d="M 398.5,236.5 C 397.59,239.992 395.924,242.992 393.5,245.5C 394.455,243.254 395.122,240.921 395.5,238.5C 396.29,237.599 397.29,236.932 398.5,236.5 Z"/></g>
<g><path style="opacity:1" fill="#89241a" d="M 384.5,236.5 C 388.206,237.087 391.873,237.754 395.5,238.5C 395.122,240.921 394.455,243.254 393.5,245.5C 393.672,246.492 393.338,247.158 392.5,247.5C 391.833,247.833 391.167,248.167 390.5,248.5C 390.25,246.326 389.25,244.659 387.5,243.5C 386.326,242.486 385.66,241.153 385.5,239.5C 385.443,238.391 385.11,237.391 384.5,236.5 Z"/></g>
<g><path style="opacity:1" fill="#6e6c6d" d="M 351.5,228.5 C 350.833,231.5 350.167,234.5 349.5,237.5C 349.5,238.167 349.5,238.833 349.5,239.5C 348.094,239.973 347.427,240.973 347.5,242.5C 346.5,242.833 345.833,243.5 345.5,244.5C 344.167,245.167 343.167,246.167 342.5,247.5C 341.833,247.5 341.167,247.5 340.5,247.5C 316.788,247.813 293.122,247.48 269.5,246.5C 265.783,245.08 263.45,242.413 262.5,238.5C 261.244,234.913 260.744,231.246 261,227.5C 264,231.581 267.834,234.581 272.5,236.5C 273.347,237.966 274.68,238.8 276.5,239C 296.833,239.667 317.167,239.667 337.5,239C 338.756,238.583 339.423,237.75 339.5,236.5C 341.481,234.697 343.648,233.03 346,231.5C 347.167,229.667 348.333,227.833 349.5,226C 351.061,225.812 351.728,226.645 351.5,228.5 Z"/></g>
<g><path style="opacity:1" fill="#959394" d="M 272.5,236.5 C 293.961,237.816 315.294,237.816 336.5,236.5C 337.5,236.5 338.5,236.5 339.5,236.5C 339.423,237.75 338.756,238.583 337.5,239C 317.167,239.667 296.833,239.667 276.5,239C 274.68,238.8 273.347,237.966 272.5,236.5 Z"/></g>
<g><path style="opacity:0.259" fill="#f9dbd7" d="M 458.5,227.5 C 460.607,226.532 462.941,226.198 465.5,226.5C 465.5,227.833 465.5,229.167 465.5,230.5C 461.5,231.167 461.5,231.833 465.5,232.5C 465.567,235.483 464.567,237.15 462.5,237.5C 463.628,238.262 464.795,238.929 466,239.5C 466.667,240.167 466.667,240.833 466,241.5C 463.281,242.444 460.448,242.777 457.5,242.5C 457.179,237.305 457.513,232.305 458.5,227.5 Z"/></g>
<g><path style="opacity:1" fill="#de3c3b" d="M 458.5,227.5 C 460.604,227.201 462.604,227.534 464.5,228.5C 463.675,229.386 462.675,229.719 461.5,229.5C 461.328,231.492 461.995,233.158 463.5,234.5C 461.995,235.842 461.328,237.508 461.5,239.5C 462.675,239.281 463.675,239.614 464.5,240.5C 462.604,241.466 460.604,241.799 458.5,241.5C 458.5,236.833 458.5,232.167 458.5,227.5 Z"/></g>
<g><path style="opacity:0.369" fill="#f6b4b1" d="M 349.5,241.5 C 349.573,243.027 348.906,244.027 347.5,244.5C 347.5,243.833 347.5,243.167 347.5,242.5C 348.167,242.167 348.833,241.833 349.5,241.5 Z"/></g>
<g><path style="opacity:0.22" fill="#e2bdbb" d="M 387.5,243.5 C 389.25,244.659 390.25,246.326 390.5,248.5C 388.75,247.341 387.75,245.674 387.5,243.5 Z"/></g>
<g><path style="opacity:0.867" fill="#f1928b" d="M 345.5,244.5 C 346.167,244.5 346.833,244.5 347.5,244.5C 347.011,247.324 345.344,248.657 342.5,248.5C 342.5,248.167 342.5,247.833 342.5,247.5C 344.5,247.5 345.5,246.5 345.5,244.5 Z"/></g>
<g><path style="opacity:0.86" fill="#8e8c8e" d="M 269.5,246.5 C 293.122,247.48 316.788,247.813 340.5,247.5C 340.5,247.833 340.5,248.167 340.5,248.5C 339.167,248.5 337.833,248.5 336.5,248.5C 315.833,248.5 295.167,248.5 274.5,248.5C 272.302,248.88 270.635,248.213 269.5,246.5 Z"/></g>
<g><path style="opacity:1" fill="#fa1008" d="M 354.5,244.5 C 357.217,250.708 358.217,257.374 357.5,264.5C 349.127,261.953 340.794,261.953 332.5,264.5C 331.508,260.217 331.174,255.884 331.5,251.5C 334.059,251.802 336.393,251.468 338.5,250.5C 340.38,250.771 341.713,250.104 342.5,248.5C 345.344,248.657 347.011,247.324 347.5,244.5C 348.906,244.027 349.573,243.027 349.5,241.5C 349.5,240.833 349.5,240.167 349.5,239.5C 350.338,239.158 350.672,238.492 350.5,237.5C 350.833,237.5 351.167,237.5 351.5,237.5C 352.322,235.611 353.155,233.611 354,231.5C 354.499,235.821 354.666,240.154 354.5,244.5 Z"/></g>
<g><path style="opacity:0.08" fill="#f3eceb" d="M 274.5,248.5 C 295.167,248.5 315.833,248.5 336.5,248.5C 337.833,249.833 339.167,249.833 340.5,248.5C 341.167,248.5 341.833,248.5 342.5,248.5C 341.713,250.104 340.38,250.771 338.5,250.5C 335.5,250.5 332.5,250.5 329.5,250.5C 311.167,249.833 292.833,249.167 274.5,248.5 Z"/></g>
<g><path style="opacity:0.457" fill="#fac2b8" d="M 355.5,244.5 C 358.258,244.757 359.925,246.257 360.5,249C 360.545,254.733 360.211,260.233 359.5,265.5C 359.768,263.901 359.434,262.568 358.5,261.5C 359.262,255.313 358.262,249.646 355.5,244.5 Z"/></g>
<g><path style="opacity:0.008" fill="#e9e0de" d="M 392.5,247.5 C 392.289,249.424 391.623,249.757 390.5,248.5C 391.167,248.167 391.833,247.833 392.5,247.5 Z"/></g>
<g><path style="opacity:1" fill="#dc0308" d="M 354.5,244.5 C 354.833,244.5 355.167,244.5 355.5,244.5C 358.262,249.646 359.262,255.313 358.5,261.5C 358.5,263.5 358.5,265.5 358.5,267.5C 357.883,267.611 357.383,267.944 357,268.5C 355.254,266.543 353.088,265.543 350.5,265.5C 343.988,264.368 337.321,264.368 330.5,265.5C 330.181,260.637 330.514,255.97 331.5,251.5C 331.174,255.884 331.508,260.217 332.5,264.5C 340.794,261.953 349.127,261.953 357.5,264.5C 358.217,257.374 357.217,250.708 354.5,244.5 Z"/></g>
<g><path style="opacity:0.551" fill="#787878" d="M 417.5,262.5 C 417.5,262.833 417.5,263.167 417.5,263.5C 400.833,263.5 384.167,263.5 367.5,263.5C 367.5,265.5 367.5,267.5 367.5,269.5C 366.539,267.735 366.205,265.735 366.5,263.5C 383.325,262.503 400.325,262.17 417.5,262.5 Z"/></g>
<g><path style="opacity:0.075" fill="#fce2e1" d="M 454.5,245.5 C 458.437,245.207 462.27,245.54 466,246.5C 463.912,251.025 463.078,256.025 463.5,261.5C 462.167,261.5 460.833,261.5 459.5,261.5C 459.824,257.445 459.491,253.445 458.5,249.5C 457.833,256.989 457.167,264.322 456.5,271.5C 456.5,271.167 456.5,270.833 456.5,270.5C 456.826,262.316 456.492,254.316 455.5,246.5C 454.833,246.5 454.5,246.167 454.5,245.5 Z"/></g>
<g><path style="opacity:1" fill="#d41c1c" d="M 458.5,246.5 C 460.604,246.201 462.604,246.534 464.5,247.5C 462.972,251.639 461.972,255.972 461.5,260.5C 460.919,255.659 459.919,250.993 458.5,246.5 Z"/></g>
<g><path style="opacity:1" fill="#b01a18" d="M 329.5,250.5 C 332.5,250.5 335.5,250.5 338.5,250.5C 336.393,251.468 334.059,251.802 331.5,251.5C 330.514,255.97 330.181,260.637 330.5,265.5C 337.321,264.368 343.988,264.368 350.5,265.5C 344.755,265.211 339.088,265.711 333.5,267C 332.635,268.359 331.635,269.526 330.5,270.5C 329.509,264.021 329.176,257.354 329.5,250.5 Z"/></g>
<g><path style="opacity:1" fill="#bf150f" d="M 455.5,246.5 C 456.492,254.316 456.826,262.316 456.5,270.5C 456.167,270.5 455.833,270.5 455.5,270.5C 454.126,267.645 451.793,266.145 448.5,266C 442.167,265.333 435.833,265.333 429.5,266C 428.529,267.481 427.196,268.315 425.5,268.5C 425.5,267.833 425.5,267.167 425.5,266.5C 427.471,264.848 429.804,263.681 432.5,263C 440.182,262.459 447.848,262.626 455.5,263.5C 455.5,258.167 455.5,252.833 455.5,247.5C 455.5,247.167 455.5,246.833 455.5,246.5 Z"/></g>
<g><path style="opacity:0.004" fill="#f9faf9" d="M 363.5,265.5 C 364.833,266.167 364.833,266.167 363.5,265.5 Z"/></g>
<g><path style="opacity:0.01" fill="#fcfcfc" d="M 225.5,266.5 C 226.525,266.897 226.692,267.563 226,268.5C 225.536,267.906 225.369,267.239 225.5,266.5 Z"/></g>
<g><path style="opacity:1" fill="#7e0001" d="M 455.5,270.5 C 445.111,271.141 435.111,270.474 425.5,268.5C 427.196,268.315 428.529,267.481 429.5,266C 435.833,265.333 442.167,265.333 448.5,266C 451.793,266.145 454.126,267.645 455.5,270.5 Z"/></g>
<g><path style="opacity:0.408" fill="#7f7f7f" d="M 228.5,42.5 C 228.5,118.167 228.5,193.833 228.5,269.5C 259.5,269.5 290.5,269.5 321.5,269.5C 321.5,267.5 321.5,265.5 321.5,263.5C 294.328,263.831 267.328,263.498 240.5,262.5C 240.833,262.5 241.167,262.5 241.5,262.5C 268.5,262.5 295.5,262.5 322.5,262.5C 322.5,265.167 322.5,267.833 322.5,270.5C 290.833,270.5 259.167,270.5 227.5,270.5C 227.167,194.332 227.501,118.332 228.5,42.5 Z"/></g>
<g><path style="opacity:0.413" fill="#acacac" d="M 417.5,262.5 C 418.473,264.948 418.806,267.615 418.5,270.5C 400.833,270.5 383.167,270.5 365.5,270.5C 365.198,267.941 365.532,265.607 366.5,263.5C 366.205,265.735 366.539,267.735 367.5,269.5C 384.167,269.5 400.833,269.5 417.5,269.5C 417.5,267.5 417.5,265.5 417.5,263.5C 417.5,263.167 417.5,262.833 417.5,262.5 Z"/></g>
<g><path style="opacity:1" fill="#010101" d="M 417.5,263.5 C 417.5,265.5 417.5,267.5 417.5,269.5C 400.833,269.5 384.167,269.5 367.5,269.5C 367.5,267.5 367.5,265.5 367.5,263.5C 384.167,263.5 400.833,263.5 417.5,263.5 Z"/></g>
<g><path style="opacity:0.49" fill="#cfa1a1" d="M 329.5,250.5 C 329.176,257.354 329.509,264.021 330.5,270.5C 339.833,270.5 349.167,270.5 358.5,270.5C 358.5,269.5 358.5,268.5 358.5,267.5C 358.5,265.5 358.5,263.5 358.5,261.5C 359.434,262.568 359.768,263.901 359.5,265.5C 359.5,267.5 359.5,269.5 359.5,271.5C 349.167,271.5 338.833,271.5 328.5,271.5C 328.175,264.313 328.509,257.313 329.5,250.5 Z"/></g>
<g><path style="opacity:1" fill="#800001" d="M 350.5,265.5 C 353.088,265.543 355.254,266.543 357,268.5C 357.383,267.944 357.883,267.611 358.5,267.5C 358.5,268.5 358.5,269.5 358.5,270.5C 349.167,270.5 339.833,270.5 330.5,270.5C 331.635,269.526 332.635,268.359 333.5,267C 339.088,265.711 344.755,265.211 350.5,265.5 Z"/></g>
<g><path style="opacity:0.473" fill="#c89291" d="M 428.5,244.5 C 427.828,245.267 426.995,245.934 426,246.5C 425.5,253.158 425.334,259.825 425.5,266.5C 425.5,267.167 425.5,267.833 425.5,268.5C 435.111,270.474 445.111,271.141 455.5,270.5C 455.833,270.5 456.167,270.5 456.5,270.5C 456.5,270.833 456.5,271.167 456.5,271.5C 445.833,271.5 435.167,271.5 424.5,271.5C 424.334,262.827 424.5,254.16 425,245.5C 426.011,244.663 427.178,244.33 428.5,244.5 Z"/></g>
</svg>
